<?xml version="1.0" encoding="UTF-8" standalone="no"?>
<!DOCTYPE svg PUBLIC "-//W3C//DTD SVG 1.1//EN" "http://www.w3.org/Graphics/SVG/1.1/DTD/svg11.dtd">
<svg width="100%" height="100%" viewBox="0 0 662 308" version="1.1" xmlns="http://www.w3.org/2000/svg" xmlns:xlink="http://www.w3.org/1999/xlink" xml:space="preserve" xmlns:serif="http://www.serif.com/" style="fill-rule:evenodd;clip-rule:evenodd;stroke-linejoin:round;stroke-miterlimit:2;">
    <g transform="matrix(1,0,0,1,-70.84125,-70.86625)">
        <g transform="matrix(4.166667,0,0,4.166667,0,0)">
            <path d="M101.801,36.562C101.909,36.746 102.003,36.939 102.083,37.143C102.164,37.346 102.242,37.551 102.319,37.758C102.396,37.543 102.476,37.338 102.56,37.143C102.645,36.947 102.741,36.75 102.848,36.55L108.425,26.419C108.525,26.243 108.628,26.135 108.736,26.097C108.843,26.059 108.996,26.039 109.196,26.039L110.84,26.039L110.84,42.519L108.885,42.519L108.885,30.409C108.885,30.248 108.889,30.076 108.897,29.892C108.904,29.708 108.916,29.52 108.931,29.328L103.285,39.632C103.093,39.977 102.825,40.15 102.48,40.15L102.158,40.15C101.813,40.15 101.545,39.977 101.353,39.632L95.58,29.294C95.603,29.493 95.62,29.689 95.632,29.88C95.643,30.072 95.649,30.248 95.649,30.409L95.649,42.519L93.694,42.519L93.694,26.039L95.339,26.039C95.538,26.039 95.691,26.059 95.799,26.097C95.906,26.135 96.009,26.243 96.109,26.419L101.801,36.562Z" style="fill:rgb(35,31,32);fill-rule:nonzero;"/>
            <path d="M116.832,30.869L116.832,42.519L114.785,42.519L114.785,30.869L116.832,30.869ZM117.292,27.212C117.292,27.412 117.251,27.598 117.171,27.77C117.09,27.943 116.983,28.096 116.849,28.23C116.715,28.364 116.559,28.47 116.383,28.546C116.207,28.623 116.019,28.661 115.82,28.661C115.62,28.661 115.434,28.623 115.262,28.546C115.089,28.47 114.936,28.364 114.802,28.23C114.668,28.096 114.562,27.943 114.486,27.77C114.409,27.598 114.371,27.412 114.371,27.212C114.371,27.013 114.409,26.823 114.486,26.643C114.562,26.463 114.668,26.306 114.802,26.172C114.936,26.037 115.089,25.932 115.262,25.855C115.434,25.779 115.62,25.74 115.82,25.74C116.019,25.74 116.207,25.779 116.383,25.855C116.559,25.932 116.715,26.037 116.849,26.172C116.983,26.306 117.09,26.463 117.171,26.643C117.251,26.823 117.292,27.013 117.292,27.212Z" style="fill:rgb(35,31,32);fill-rule:nonzero;"/>
            <path d="M120.074,42.519L120.074,30.869L121.293,30.869C121.585,30.869 121.769,31.011 121.845,31.295L122.006,32.56C122.512,32 123.078,31.548 123.703,31.203C124.327,30.858 125.05,30.685 125.87,30.685C126.507,30.685 127.068,30.791 127.555,31.002C128.042,31.212 128.448,31.511 128.774,31.899C129.1,32.286 129.347,32.752 129.516,33.296C129.684,33.84 129.769,34.442 129.769,35.101L129.769,42.519L127.722,42.519L127.722,35.101C127.722,34.22 127.521,33.535 127.118,33.049C126.716,32.562 126.1,32.318 125.272,32.318C124.667,32.318 124.101,32.464 123.576,32.755C123.051,33.047 122.566,33.442 122.121,33.94L122.121,42.519L120.074,42.519Z" style="fill:rgb(35,31,32);fill-rule:nonzero;"/>
            <path d="M135.185,30.869L135.185,42.519L133.138,42.519L133.138,30.869L135.185,30.869ZM135.645,27.212C135.645,27.412 135.605,27.598 135.524,27.77C135.444,27.943 135.337,28.096 135.202,28.23C135.068,28.364 134.913,28.47 134.737,28.546C134.56,28.623 134.373,28.661 134.173,28.661C133.974,28.661 133.788,28.623 133.615,28.546C133.443,28.47 133.29,28.364 133.155,28.23C133.021,28.096 132.916,27.943 132.839,27.77C132.763,27.598 132.724,27.412 132.724,27.212C132.724,27.013 132.763,26.823 132.839,26.643C132.916,26.463 133.021,26.306 133.155,26.172C133.29,26.037 133.443,25.932 133.615,25.855C133.788,25.779 133.974,25.74 134.173,25.74C134.373,25.74 134.56,25.779 134.737,25.855C134.913,25.932 135.068,26.037 135.202,26.172C135.337,26.306 135.444,26.463 135.524,26.643C135.605,26.823 135.645,27.013 135.645,27.212Z" style="fill:rgb(35,31,32);fill-rule:nonzero;"/>
            <path d="M145.098,32.79C145.006,32.959 144.864,33.043 144.672,33.043C144.557,33.043 144.427,33.001 144.281,32.916C144.136,32.832 143.958,32.738 143.747,32.635C143.536,32.531 143.285,32.435 142.993,32.347C142.702,32.259 142.357,32.215 141.959,32.215C141.614,32.215 141.303,32.259 141.027,32.347C140.751,32.435 140.515,32.556 140.32,32.709C140.124,32.863 139.975,33.041 139.871,33.244C139.768,33.447 139.716,33.668 139.716,33.905C139.716,34.204 139.802,34.454 139.975,34.653C140.147,34.852 140.375,35.025 140.659,35.17C140.943,35.316 141.265,35.444 141.625,35.556C141.985,35.667 142.355,35.786 142.735,35.912C143.114,36.039 143.484,36.179 143.844,36.332C144.205,36.485 144.527,36.677 144.81,36.907C145.094,37.137 145.322,37.419 145.495,37.752C145.667,38.086 145.753,38.486 145.753,38.954C145.753,39.491 145.658,39.987 145.466,40.443C145.274,40.899 144.991,41.294 144.615,41.628C144.239,41.961 143.779,42.224 143.235,42.415C142.691,42.607 142.062,42.703 141.349,42.703C140.536,42.703 139.8,42.571 139.141,42.306C138.482,42.042 137.922,41.702 137.462,41.288L137.945,40.506C138.006,40.407 138.079,40.33 138.164,40.276C138.248,40.223 138.359,40.196 138.497,40.196C138.635,40.196 138.781,40.25 138.934,40.357C139.087,40.464 139.273,40.583 139.492,40.713C139.71,40.844 139.975,40.963 140.285,41.07C140.596,41.177 140.985,41.231 141.453,41.231C141.851,41.231 142.2,41.179 142.499,41.076C142.798,40.972 143.047,40.832 143.246,40.656C143.446,40.48 143.593,40.276 143.689,40.046C143.785,39.816 143.833,39.571 143.833,39.31C143.833,38.988 143.747,38.722 143.574,38.511C143.402,38.3 143.174,38.12 142.89,37.971C142.606,37.821 142.282,37.691 141.918,37.58C141.554,37.468 141.182,37.352 140.803,37.229C140.423,37.106 140.051,36.966 139.687,36.809C139.323,36.652 138.999,36.455 138.716,36.217C138.432,35.979 138.204,35.686 138.031,35.337C137.859,34.988 137.773,34.565 137.773,34.066C137.773,33.622 137.865,33.194 138.049,32.784C138.233,32.374 138.501,32.014 138.854,31.703C139.206,31.393 139.639,31.145 140.153,30.961C140.667,30.777 141.253,30.685 141.913,30.685C142.679,30.685 143.367,30.806 143.977,31.048C144.586,31.289 145.113,31.621 145.558,32.042L145.098,32.79Z" style="fill:rgb(35,31,32);fill-rule:nonzero;"/>
            <path d="M151.917,42.703C150.997,42.703 150.29,42.446 149.796,41.932C149.301,41.419 149.054,40.679 149.054,39.713L149.054,32.583L147.651,32.583C147.528,32.583 147.425,32.546 147.34,32.474C147.256,32.401 147.214,32.288 147.214,32.134L147.214,31.318L149.123,31.076L149.594,27.477C149.61,27.362 149.66,27.268 149.744,27.195C149.828,27.122 149.936,27.086 150.066,27.086L151.101,27.086L151.101,31.099L154.436,31.099L154.436,32.583L151.101,32.583L151.101,39.575C151.101,40.066 151.22,40.43 151.457,40.667C151.695,40.905 152.002,41.024 152.377,41.024C152.592,41.024 152.778,40.995 152.935,40.938C153.092,40.88 153.228,40.817 153.343,40.748C153.458,40.679 153.556,40.616 153.637,40.558C153.717,40.501 153.788,40.472 153.849,40.472C153.957,40.472 154.052,40.537 154.137,40.667L154.735,41.645C154.382,41.975 153.957,42.233 153.458,42.421C152.96,42.609 152.446,42.703 151.917,42.703Z" style="fill:rgb(35,31,32);fill-rule:nonzero;"/>
            <path d="M161.186,30.685C161.884,30.685 162.528,30.802 163.118,31.036C163.708,31.27 164.218,31.607 164.648,32.048C165.077,32.489 165.412,33.033 165.654,33.681C165.895,34.329 166.016,35.067 166.016,35.895C166.016,36.217 165.981,36.432 165.912,36.539C165.843,36.646 165.713,36.7 165.522,36.7L157.771,36.7C157.786,37.436 157.886,38.076 158.07,38.62C158.254,39.165 158.507,39.619 158.829,39.983C159.151,40.347 159.534,40.619 159.979,40.8C160.423,40.98 160.922,41.07 161.474,41.07C161.987,41.07 162.43,41.01 162.802,40.892C163.174,40.773 163.494,40.644 163.762,40.506C164.03,40.368 164.255,40.24 164.435,40.121C164.615,40.002 164.77,39.943 164.901,39.943C165.069,39.943 165.2,40.008 165.292,40.138L165.866,40.886C165.613,41.193 165.311,41.459 164.958,41.685C164.605,41.911 164.228,42.097 163.825,42.243C163.423,42.389 163.007,42.498 162.578,42.571C162.148,42.643 161.723,42.68 161.301,42.68C160.496,42.68 159.754,42.544 159.076,42.272C158.397,41.999 157.811,41.601 157.316,41.076C156.822,40.55 156.437,39.901 156.161,39.126C155.885,38.352 155.747,37.463 155.747,36.458C155.747,35.646 155.871,34.887 156.12,34.181C156.37,33.476 156.728,32.865 157.196,32.347C157.663,31.83 158.234,31.423 158.909,31.128C159.584,30.833 160.343,30.685 161.186,30.685ZM161.232,32.192C160.243,32.192 159.465,32.477 158.898,33.049C158.33,33.62 157.978,34.411 157.84,35.423L164.176,35.423C164.176,34.948 164.111,34.513 163.981,34.118C163.85,33.723 163.659,33.382 163.406,33.095C163.153,32.807 162.844,32.585 162.48,32.428C162.116,32.27 161.7,32.192 161.232,32.192Z" style="fill:rgb(35,31,32);fill-rule:nonzero;"/>
            <path d="M168.718,42.519L168.718,30.869L169.891,30.869C170.114,30.869 170.267,30.912 170.351,30.996C170.436,31.08 170.493,31.226 170.524,31.433L170.662,33.25C171.061,32.437 171.553,31.803 172.14,31.347C172.726,30.89 173.414,30.662 174.204,30.662C174.526,30.662 174.817,30.699 175.078,30.772C175.338,30.844 175.58,30.946 175.802,31.076L175.538,32.606C175.484,32.798 175.365,32.893 175.181,32.893C175.074,32.893 174.909,32.857 174.687,32.784C174.464,32.711 174.154,32.675 173.755,32.675C173.042,32.675 172.446,32.882 171.967,33.296C171.488,33.71 171.087,34.312 170.765,35.101L170.765,42.519L168.718,42.519Z" style="fill:rgb(35,31,32);fill-rule:nonzero;"/>
        </g>
        <g transform="matrix(4.166667,0,0,4.166667,0,0)">
            <path d="M103.7,51.517L103.7,53.334L95.788,53.334L95.788,58.808L102.194,58.808L102.194,60.556L95.788,60.556L95.788,66.18L103.7,66.18L103.7,67.996L93.546,67.996L93.546,51.517L103.7,51.517Z" style="fill:rgb(35,31,32);fill-rule:nonzero;"/>
            <path d="M114.223,67.996C113.931,67.996 113.747,67.855 113.671,67.571L113.487,66.156C112.988,66.762 112.419,67.247 111.779,67.611C111.139,67.975 110.405,68.157 109.577,68.157C108.91,68.157 108.304,68.029 107.76,67.772C107.215,67.515 106.752,67.138 106.368,66.639C105.985,66.141 105.69,65.52 105.483,64.776C105.276,64.033 105.172,63.178 105.172,62.212C105.172,61.353 105.287,60.554 105.517,59.814C105.747,59.074 106.079,58.432 106.512,57.888C106.945,57.344 107.472,56.916 108.093,56.606C108.714,56.295 109.42,56.14 110.209,56.14C110.922,56.14 111.532,56.261 112.038,56.502C112.544,56.744 112.996,57.083 113.395,57.52L113.395,51.057L115.442,51.057L115.442,67.996L114.223,67.996ZM110.255,66.501C110.922,66.501 111.507,66.348 112.009,66.041C112.511,65.735 112.973,65.302 113.395,64.742L113.395,59.107C113.019,58.601 112.607,58.246 112.158,58.043C111.71,57.84 111.214,57.738 110.669,57.738C109.581,57.738 108.745,58.126 108.162,58.9C107.58,59.674 107.288,60.778 107.288,62.212C107.288,62.971 107.353,63.621 107.484,64.161C107.614,64.702 107.806,65.146 108.059,65.495C108.312,65.844 108.622,66.099 108.99,66.26C109.358,66.421 109.78,66.501 110.255,66.501Z" style="fill:rgb(35,31,32);fill-rule:nonzero;"/>
            <path d="M120.674,56.347L120.674,63.776C120.674,64.658 120.877,65.34 121.284,65.823C121.69,66.306 122.303,66.547 123.124,66.547C123.722,66.547 124.285,66.406 124.814,66.122C125.343,65.838 125.83,65.444 126.275,64.938L126.275,56.347L128.322,56.347L128.322,67.996L127.103,67.996C126.811,67.996 126.627,67.855 126.551,67.571L126.39,66.317C125.884,66.877 125.316,67.328 124.688,67.669C124.059,68.01 123.338,68.18 122.526,68.18C121.889,68.18 121.328,68.075 120.841,67.864C120.354,67.653 119.946,67.356 119.616,66.973C119.287,66.59 119.039,66.126 118.874,65.581C118.71,65.037 118.627,64.435 118.627,63.776L118.627,56.347L120.674,56.347Z" style="fill:rgb(35,31,32);fill-rule:nonzero;"/>
            <path d="M133.842,51.057L133.842,61.027L134.371,61.027C134.524,61.027 134.651,61.006 134.75,60.964C134.85,60.922 134.961,60.836 135.084,60.706L138.764,56.761C138.879,56.638 138.994,56.539 139.109,56.462C139.224,56.385 139.377,56.347 139.569,56.347L141.432,56.347L137.142,60.912C137.035,61.043 136.929,61.158 136.826,61.258C136.722,61.357 136.606,61.445 136.475,61.522C136.613,61.614 136.738,61.719 136.849,61.838C136.96,61.957 137.066,62.093 137.165,62.246L141.719,67.996L139.879,67.996C139.711,67.996 139.567,67.964 139.448,67.899C139.329,67.834 139.216,67.732 139.109,67.594L135.279,62.822C135.164,62.66 135.049,62.555 134.934,62.505C134.819,62.455 134.647,62.43 134.417,62.43L133.842,62.43L133.842,67.996L131.783,67.996L131.783,51.057L133.842,51.057Z" style="fill:rgb(35,31,32);fill-rule:nonzero;"/>
            <path d="M151.954,67.996L151.046,67.996C150.846,67.996 150.685,67.966 150.563,67.904C150.44,67.843 150.36,67.713 150.321,67.513L150.091,66.433C149.785,66.709 149.486,66.956 149.194,67.174C148.903,67.393 148.596,67.577 148.274,67.726C147.952,67.876 147.609,67.989 147.245,68.066C146.881,68.142 146.476,68.18 146.032,68.18C145.579,68.18 145.156,68.117 144.761,67.99C144.366,67.863 144.023,67.673 143.732,67.419C143.44,67.165 143.208,66.844 143.036,66.455C142.863,66.067 142.777,65.607 142.777,65.076C142.777,64.615 142.904,64.171 143.157,63.744C143.41,63.317 143.818,62.938 144.381,62.607C144.945,62.276 145.683,62.005 146.595,61.793C147.508,61.582 148.623,61.476 149.942,61.476L149.942,60.562C149.942,59.651 149.748,58.963 149.361,58.496C148.974,58.029 148.401,57.796 147.642,57.796C147.143,57.796 146.724,57.859 146.382,57.986C146.041,58.112 145.746,58.254 145.497,58.411C145.248,58.568 145.033,58.71 144.853,58.837C144.673,58.963 144.495,59.026 144.318,59.026C144.18,59.026 144.059,58.99 143.956,58.917C143.852,58.844 143.77,58.754 143.709,58.647L143.341,57.991C143.985,57.37 144.679,56.907 145.422,56.6C146.166,56.293 146.99,56.14 147.895,56.14C148.546,56.14 149.125,56.247 149.631,56.462C150.137,56.677 150.563,56.976 150.908,57.359C151.253,57.742 151.513,58.206 151.69,58.75C151.866,59.295 151.954,59.893 151.954,60.544L151.954,67.996ZM146.641,66.743C147.002,66.743 147.331,66.707 147.63,66.634C147.929,66.561 148.211,66.457 148.475,66.323C148.74,66.189 148.993,66.026 149.234,65.834C149.476,65.643 149.712,65.424 149.942,65.179L149.942,62.775C148.999,62.775 148.198,62.835 147.538,62.955C146.879,63.074 146.342,63.231 145.928,63.423C145.514,63.616 145.213,63.844 145.025,64.106C144.838,64.368 144.744,64.661 144.744,64.985C144.744,65.293 144.794,65.559 144.893,65.783C144.993,66.007 145.127,66.19 145.296,66.332C145.464,66.475 145.664,66.579 145.894,66.645C146.124,66.71 146.373,66.743 146.641,66.743Z" style="fill:rgb(35,31,32);fill-rule:nonzero;"/>
            <path d="M162.776,58.417C162.714,58.501 162.653,58.566 162.592,58.612C162.53,58.658 162.442,58.681 162.327,58.681C162.212,58.681 162.088,58.634 161.953,58.538C161.819,58.442 161.649,58.337 161.442,58.221C161.235,58.106 160.984,58.001 160.688,57.905C160.393,57.809 160.031,57.761 159.602,57.761C159.034,57.761 158.532,57.863 158.095,58.066C157.658,58.269 157.292,58.563 156.997,58.946C156.702,59.329 156.479,59.793 156.33,60.337C156.18,60.882 156.106,61.491 156.106,62.166C156.106,62.871 156.186,63.498 156.347,64.046C156.508,64.594 156.734,65.054 157.026,65.426C157.317,65.798 157.672,66.082 158.089,66.277C158.507,66.473 158.977,66.57 159.498,66.57C159.997,66.57 160.407,66.511 160.729,66.392C161.051,66.273 161.319,66.141 161.534,65.995C161.748,65.85 161.925,65.718 162.063,65.599C162.201,65.48 162.339,65.421 162.477,65.421C162.653,65.421 162.783,65.486 162.868,65.616L163.443,66.364C162.937,66.984 162.304,67.439 161.545,67.726C160.786,68.014 159.985,68.157 159.142,68.157C158.413,68.157 157.737,68.023 157.112,67.755C156.487,67.487 155.945,67.098 155.485,66.588C155.025,66.078 154.662,65.451 154.398,64.707C154.133,63.964 154.001,63.117 154.001,62.166C154.001,61.3 154.122,60.498 154.363,59.762C154.605,59.026 154.958,58.392 155.421,57.859C155.885,57.326 156.458,56.91 157.141,56.611C157.823,56.312 158.605,56.163 159.487,56.163C160.299,56.163 161.02,56.295 161.649,56.56C162.277,56.824 162.833,57.198 163.316,57.681L162.776,58.417Z" style="fill:rgb(35,31,32);fill-rule:nonzero;"/>
            <path d="M168.077,56.346L168.077,68.859C168.077,69.326 168.016,69.762 167.893,70.164C167.771,70.567 167.577,70.917 167.312,71.216C167.048,71.515 166.707,71.751 166.289,71.924C165.871,72.096 165.371,72.183 164.788,72.183C164.535,72.183 164.305,72.163 164.098,72.125C163.891,72.087 163.684,72.029 163.477,71.953L163.569,70.849C163.585,70.749 163.619,70.686 163.673,70.659C163.726,70.632 163.811,70.618 163.926,70.618L164.374,70.618C164.972,70.618 165.398,70.479 165.651,70.199C165.904,69.919 166.03,69.469 166.03,68.849L166.03,56.346L168.077,56.346ZM168.537,52.69C168.537,52.889 168.497,53.075 168.416,53.248C168.336,53.42 168.229,53.574 168.094,53.708C167.96,53.842 167.805,53.947 167.629,54.024C167.452,54.101 167.265,54.139 167.065,54.139C166.866,54.139 166.68,54.101 166.507,54.024C166.335,53.947 166.182,53.842 166.047,53.708C165.913,53.574 165.808,53.42 165.731,53.248C165.655,53.075 165.616,52.889 165.616,52.69C165.616,52.491 165.655,52.301 165.731,52.121C165.808,51.941 165.913,51.783 166.047,51.649C166.182,51.515 166.335,51.41 166.507,51.333C166.68,51.256 166.866,51.218 167.065,51.218C167.265,51.218 167.452,51.256 167.629,51.333C167.805,51.41 167.96,51.515 168.094,51.649C168.229,51.783 168.336,51.941 168.416,52.121C168.497,52.301 168.537,52.491 168.537,52.69Z" style="fill:rgb(35,31,32);fill-rule:nonzero;"/>
            <path d="M173.597,56.347L173.597,67.996L171.55,67.996L171.55,56.347L173.597,56.347ZM174.057,52.69C174.057,52.889 174.017,53.075 173.936,53.248C173.856,53.42 173.749,53.574 173.614,53.708C173.48,53.842 173.325,53.947 173.149,54.024C172.972,54.101 172.785,54.139 172.585,54.139C172.386,54.139 172.2,54.101 172.027,54.024C171.855,53.947 171.702,53.842 171.567,53.708C171.433,53.574 171.328,53.42 171.251,53.248C171.175,53.075 171.136,52.889 171.136,52.69C171.136,52.491 171.175,52.301 171.251,52.121C171.328,51.941 171.433,51.783 171.567,51.649C171.702,51.515 171.855,51.41 172.027,51.333C172.2,51.256 172.386,51.218 172.585,51.218C172.785,51.218 172.972,51.256 173.149,51.333C173.325,51.41 173.48,51.515 173.614,51.649C173.749,51.783 173.856,51.941 173.936,52.121C174.017,52.301 174.057,52.491 174.057,52.69Z" style="fill:rgb(35,31,32);fill-rule:nonzero;"/>
        </g>
        <g transform="matrix(4.166667,0,0,4.166667,0,0)">
            <g transform="matrix(1,0,0,1,53.3609,84.6429)">
                <path d="M0,-61.471C-0.197,-61.414 -0.451,-61.46 -0.638,-61.568C-0.991,-61.782 -0.606,-62.802 0.085,-63.227C0.569,-62.457 0.44,-61.601 0,-61.471M4.549,-2.804C5.13,-2.804 5.639,-2.883 6.079,-3.043C6.064,-2.845 5.928,-2.435 5.609,-2.075C5.398,-1.833 5.044,-1.548 4.549,-1.548C3.536,-1.548 2.304,-2.573 1.179,-3.908C1.99,-3.394 3.322,-2.804 4.549,-2.804M-9.229,-1.548C-9.723,-1.548 -10.077,-1.833 -10.289,-2.075C-10.61,-2.435 -10.743,-2.845 -10.76,-3.043C-10.321,-2.883 -9.81,-2.804 -9.229,-2.804C-8.004,-2.804 -6.67,-3.397 -5.858,-3.908C-6.984,-2.573 -8.218,-1.548 -9.229,-1.548M-4.046,-61.568C-4.23,-61.46 -4.484,-61.414 -4.68,-61.471C-5.121,-61.601 -5.25,-62.457 -4.771,-63.227C-4.076,-62.802 -3.69,-61.782 -4.046,-61.568M25.522,-34.409C26.2,-34.311 26.875,-34.256 27.549,-34.256C28.999,-34.256 30.188,-34.501 30.815,-34.73L31.216,-34.876L31.057,-35.272C30.56,-36.488 29.183,-37.766 27.034,-39.016C27.828,-39.147 28.497,-39.332 29.05,-39.571C30.129,-40.039 30.773,-40.732 30.968,-41.629C31.012,-41.837 31.028,-42.378 31.028,-42.378C31.028,-42.378 30.574,-42.18 30.385,-42.089C29.972,-41.888 28.534,-41.675 25.736,-41.675C25.497,-41.675 25.255,-41.678 25.012,-41.681C26.233,-41.927 27.247,-42.219 28.108,-42.573C29.514,-43.153 30.388,-43.849 31.234,-44.52C31.357,-44.62 31.678,-44.914 31.678,-44.914C31.678,-44.914 31.308,-45.137 31.168,-45.209C30.209,-45.711 29.01,-46.218 27.186,-46.597C27.672,-46.886 28.085,-47.163 28.441,-47.445C29.143,-47.998 30.046,-48.879 29.799,-50.15C29.769,-50.306 29.614,-50.722 29.614,-50.722C29.614,-50.722 29.285,-50.498 29.153,-50.406C28.713,-50.092 27.488,-49.474 24.352,-48.27C25.962,-49.284 27.976,-50.836 28.781,-52.582C28.829,-52.692 28.968,-53.036 28.968,-53.036C28.968,-53.036 28.108,-53.302 27.179,-53.302C26.581,-53.302 25.883,-53.235 25.084,-53.103C25.229,-53.269 25.359,-53.426 25.475,-53.578C26.285,-54.655 26.462,-55.603 26.03,-56.566C25.955,-56.731 25.649,-57.059 25.649,-57.059C25.649,-57.059 25.418,-56.777 25.314,-56.629C24.971,-56.132 24.218,-55.506 23.113,-54.726C24.029,-55.808 24.612,-56.972 24.874,-58.446C24.895,-58.558 24.941,-58.896 24.941,-58.896C24.941,-58.896 24.538,-58.952 24.168,-58.952C22.895,-58.952 21.365,-58.548 19.883,-57.837C20.842,-58.849 21.748,-60.303 22.084,-61.442C22.127,-61.586 22.206,-61.977 22.206,-61.977C22.206,-61.977 21.847,-61.985 21.656,-61.969C19.362,-61.774 16.949,-61.015 14.493,-59.694C12.35,-58.547 10.63,-57.219 9.566,-56.311C6.606,-53.788 5.019,-50.446 5.526,-47.793C5.735,-46.716 6.369,-45.329 8.133,-44.341L8.169,-44.065C8.267,-43.242 8.136,-42.414 7.826,-41.952C7.172,-40.972 5.887,-40.796 4.551,-40.773L4.466,-40.958C3.551,-42.99 2.957,-45.323 2.863,-46.485L2.856,-46.563C2.989,-46.625 3.109,-46.702 3.217,-46.794L3.433,-46.975L3.337,-47.243C3.003,-48.201 3.224,-49.696 3.437,-51.139C3.712,-52.992 3.995,-54.9 3.236,-56.156C3.536,-56.332 3.783,-56.578 3.944,-56.873C4.24,-57.421 4.206,-58.048 3.848,-58.599L3.625,-58.947L3.281,-58.721C3.245,-58.699 3.208,-58.676 3.172,-58.654C3.193,-58.717 3.204,-58.771 3.212,-58.819C3.301,-59.321 3.049,-59.862 2.6,-60.13L2.392,-60.254L2.177,-60.13C2.015,-60.03 1.812,-59.956 1.571,-59.901C2.022,-60.973 2.731,-62.023 3.379,-62.975C3.803,-63.598 4.203,-64.186 4.508,-64.743L4.927,-65.5C4.927,-65.5 4.148,-65.256 3.391,-65.256C2.773,-65.215 2.077,-65.169 1.729,-64.702C1.699,-64.664 1.676,-64.62 1.656,-64.58C1.513,-64.65 1.35,-64.69 1.18,-64.69C0.912,-64.69 0.651,-64.591 0.429,-64.407C0.318,-64.937 -0.283,-65.325 -0.978,-65.325C-0.996,-65.963 -1.455,-66.517 -1.765,-66.887C-1.858,-67 -2.341,-67.635 -2.341,-67.635C-2.341,-67.635 -2.821,-67 -2.916,-66.887C-3.225,-66.517 -3.685,-65.963 -3.703,-65.325C-4.4,-65.325 -4.999,-64.937 -5.11,-64.408C-5.332,-64.591 -5.593,-64.69 -5.862,-64.69C-6.031,-64.69 -6.193,-64.65 -6.339,-64.58C-6.359,-64.62 -6.38,-64.664 -6.409,-64.702C-6.755,-65.169 -7.453,-65.215 -8.069,-65.256C-8.831,-65.256 -9.608,-65.5 -9.608,-65.5L-9.191,-64.743C-8.884,-64.186 -8.483,-63.598 -8.062,-62.975C-7.349,-61.925 -6.559,-60.766 -6.127,-59.582C-6.334,-59.376 -6.417,-59.131 -6.436,-58.9L-6.767,-58.9C-8.309,-58.9 -8.876,-58.086 -9.076,-57.604C-9.489,-56.609 -9.113,-55.37 -8.662,-54.92L-8.319,-54.574L-8.036,-54.97C-7.827,-55.264 -7.512,-55.322 -7.288,-55.322C-6.968,-55.322 -6.627,-55.202 -6.375,-54.999L-6.227,-54.881L-6.042,-54.917C-5.858,-54.953 -5.679,-54.969 -5.497,-54.969C-5.023,-54.969 -4.576,-54.84 -4.237,-54.609C-4.345,-54.639 -4.465,-54.66 -4.592,-54.672C-4.731,-54.686 -4.871,-54.694 -5.004,-54.694C-6.019,-54.694 -6.767,-54.318 -7.427,-53.989C-7.575,-53.914 -7.713,-53.845 -7.847,-53.782C-7.954,-53.733 -8.082,-53.711 -8.236,-53.711C-8.669,-53.711 -9.107,-53.909 -9.113,-53.913L-9.55,-54.119L-9.683,-53.651C-9.794,-53.266 -9.729,-52.887 -9.506,-52.589C-9.241,-52.238 -8.767,-52.035 -8.21,-52.035C-7.996,-52.035 -7.773,-52.065 -7.543,-52.12C-7.102,-52.228 -6.761,-52.393 -6.462,-52.55C-6.457,-52.359 -6.41,-52.221 -6.403,-52.194L-6.246,-51.78L-5.847,-51.963C-5.84,-51.965 -5.221,-52.239 -4.665,-52.239C-4.607,-52.239 -4.551,-52.238 -4.499,-52.23C-4.413,-52.221 -4.326,-52.205 -4.23,-52.19L-4.173,-52.139C-3.781,-51.793 -3.619,-51.377 -3.672,-50.87C-3.807,-49.574 -5.332,-48.035 -6.334,-47.464L-6.718,-47.248L-6.473,-46.879C-6.38,-46.739 -6.266,-46.614 -6.138,-46.504C-7.581,-45.105 -8.065,-43.762 -8.452,-42.679C-8.676,-42.062 -8.869,-41.531 -9.187,-41.078L-9.398,-40.774C-10.672,-40.814 -11.882,-41.012 -12.507,-41.952C-12.815,-42.414 -12.95,-43.242 -12.849,-44.065L-12.815,-44.341C-11.05,-45.329 -10.415,-46.716 -10.209,-47.793C-9.702,-50.446 -11.287,-53.788 -14.246,-56.311C-15.31,-57.219 -17.031,-58.547 -19.175,-59.694C-21.631,-61.015 -24.042,-61.774 -26.337,-61.969C-26.526,-61.985 -26.888,-61.977 -26.888,-61.977C-26.888,-61.977 -26.808,-61.586 -26.767,-61.442C-26.429,-60.303 -25.523,-58.849 -24.564,-57.837C-26.046,-58.548 -27.576,-58.952 -28.851,-58.952C-29.22,-58.952 -29.624,-58.896 -29.624,-58.896C-29.624,-58.896 -29.576,-58.558 -29.557,-58.446C-29.294,-56.972 -28.708,-55.808 -27.794,-54.726C-28.9,-55.506 -29.653,-56.132 -29.996,-56.629C-30.1,-56.777 -30.331,-57.059 -30.331,-57.059C-30.331,-57.059 -30.636,-56.731 -30.712,-56.566C-31.141,-55.603 -30.968,-54.655 -30.155,-53.578C-30.041,-53.426 -29.91,-53.269 -29.765,-53.103C-30.566,-53.235 -31.261,-53.302 -31.859,-53.302C-32.789,-53.302 -33.653,-53.036 -33.653,-53.036C-33.653,-53.036 -33.512,-52.692 -33.46,-52.582C-32.658,-50.836 -30.643,-49.284 -29.037,-48.27C-32.17,-49.474 -33.396,-50.092 -33.838,-50.406C-33.968,-50.498 -34.295,-50.722 -34.295,-50.722C-34.295,-50.722 -34.45,-50.306 -34.482,-50.15C-34.73,-48.879 -33.824,-47.998 -33.122,-47.445C-32.768,-47.163 -32.355,-46.886 -31.867,-46.597C-33.692,-46.218 -34.894,-45.711 -35.849,-45.209C-35.99,-45.137 -36.359,-44.914 -36.359,-44.914C-36.359,-44.914 -36.039,-44.62 -35.915,-44.52C-35.07,-43.849 -34.196,-43.153 -32.789,-42.573C-31.928,-42.219 -30.913,-41.927 -29.69,-41.681C-29.935,-41.678 -30.18,-41.675 -30.419,-41.675C-33.215,-41.675 -34.653,-41.888 -35.065,-42.089C-35.255,-42.18 -35.709,-42.378 -35.709,-42.378C-35.709,-42.378 -35.693,-41.837 -35.647,-41.629C-35.453,-40.732 -34.81,-40.039 -33.732,-39.571C-33.177,-39.332 -32.509,-39.147 -31.715,-39.016C-33.861,-37.766 -35.244,-36.488 -35.738,-35.272L-35.899,-34.876L-35.498,-34.73C-34.87,-34.501 -33.681,-34.256 -32.23,-34.256C-31.556,-34.256 -30.879,-34.311 -30.205,-34.409C-32.399,-32.903 -34.17,-32.044 -35.207,-32.002L-36.284,-31.96L-35.451,-31.275C-34.668,-30.625 -33.713,-30.298 -32.614,-30.298C-31.49,-30.298 -30.198,-30.633 -28.707,-31.307C-29.448,-30.308 -30.096,-29.26 -30.639,-28.154C-31.84,-25.718 -32.267,-23.595 -32.414,-22.243L-32.479,-21.638L-31.895,-21.801C-28.804,-22.652 -26.494,-23.858 -23.783,-27.282C-25.586,-23.792 -27.751,-19.658 -28.952,-19.065L-30.141,-18.481L-28.83,-18.284C-28.471,-18.234 -28.148,-18.209 -27.842,-18.209C-26.681,-18.209 -25.727,-18.597 -24.842,-19.434C-23.897,-20.326 -22.994,-21.75 -22.002,-23.919C-21.951,-24.034 -21.883,-24.198 -21.803,-24.399C-21.875,-24.063 -21.939,-23.723 -22.002,-23.383C-22.628,-19.968 -22.645,-17.506 -22.053,-15.87L-21.861,-15.332L-21.411,-15.691C-19.687,-17.051 -18.378,-18.738 -17.409,-20.832C-17.526,-20.255 -17.629,-19.774 -17.708,-19.454L-17.905,-18.651L-17.145,-18.979C-16.01,-19.467 -14.466,-21.051 -13.359,-25.735C-13.187,-25.36 -13.014,-25.06 -12.858,-24.847L-12.604,-24.496L-12.265,-24.773C-11.761,-25.18 -11.144,-26.057 -10.656,-27.067C-10.303,-27.791 -9.88,-28.865 -9.628,-30.197C-9.482,-30.176 -9.329,-30.164 -9.175,-30.164C-8.062,-30.164 -7.13,-30.581 -6.501,-31.321C-6.365,-30.836 -6.254,-30.441 -6.208,-30.279C-6.339,-30.286 -6.464,-30.291 -6.587,-30.291C-9.167,-30.291 -9.727,-28.672 -10.098,-27.601C-10.849,-25.428 -12.836,-23.368 -13.466,-22.95C-13.631,-22.84 -14.03,-22.566 -14.03,-22.566C-14.03,-22.566 -13.886,-22.34 -13.458,-22.234C-13.97,-21.379 -15.336,-20.306 -15.336,-20.306C-15.336,-20.306 -15.072,-20.095 -14.593,-20.021C-15.756,-19.045 -16.687,-18.69 -16.687,-18.69C-16.687,-18.69 -16.378,-18.389 -15.822,-18.204C-16.535,-17.494 -17.54,-16.873 -17.54,-16.873C-17.54,-16.873 -17.227,-16.612 -16.98,-16.497C-16.229,-16.159 -15.479,-15.964 -14.621,-15.926C-15.078,-15.463 -15.498,-15.043 -15.799,-14.783L-16.252,-14.4C-16.252,-14.4 -16.127,-14.248 -15.9,-14.202C-16.11,-13.988 -16.738,-13.428 -17.091,-13.144L-17.547,-12.773C-17.547,-12.773 -17.418,-12.648 -17.228,-12.58C-17.54,-12.188 -18.254,-11.643 -18.494,-11.463L-19.014,-11.077C-19.014,-11.077 -18.851,-10.944 -18.68,-10.899C-18.943,-10.642 -19.58,-10.131 -19.915,-9.943C-20.043,-9.875 -20.42,-9.663 -20.42,-9.663C-20.42,-9.663 -20.259,-9.435 -20.014,-9.295C-20.102,-9.239 -20.171,-9.132 -20.491,-9.129C-20.897,-9.124 -21.538,-9.295 -22.313,-9.556C-22.899,-9.75 -23.735,-9.877 -24.436,-9.879C-24.653,-10.433 -25.255,-11.099 -26.186,-11.099C-26.722,-11.099 -27.205,-10.889 -27.548,-10.51C-27.787,-10.251 -27.943,-9.93 -28.007,-9.582C-28.346,-9.669 -28.6,-9.46 -28.718,-9.237C-28.79,-9.105 -28.817,-8.951 -28.796,-8.807L-28.8,-8.807C-29.195,-8.481 -29.414,-8.039 -29.409,-7.565C-29.404,-6.998 -29.093,-6.437 -28.556,-6.018L-28.121,-5.682L-27.919,-6.198C-27.779,-6.562 -27.447,-6.95 -27.081,-7.251C-26.89,-7.218 -26.702,-7.2 -26.519,-7.2C-25.752,-7.2 -25.259,-7.482 -24.974,-7.726C-24.236,-7.395 -23.877,-7.131 -23.208,-7.042C-23.572,-6.889 -23.833,-6.842 -23.954,-6.8C-24.263,-6.705 -24.557,-6.605 -24.901,-6.379C-25.237,-6.651 -25.636,-6.798 -26.062,-6.798C-26.412,-6.798 -26.764,-6.696 -27.053,-6.511C-27.771,-6.055 -28.093,-5.179 -27.839,-4.377C-27.834,-4.355 -27.825,-4.334 -27.817,-4.314C-27.917,-4.225 -27.986,-4.108 -28.013,-3.963C-28.064,-3.719 -27.982,-3.379 -27.622,-3.132C-27.717,-2.577 -27.582,-2.148 -27.29,-1.807C-26.951,-1.41 -26.397,-1.179 -25.775,-1.179C-25.514,-1.179 -25.038,-1.225 -25.038,-1.225L-25.234,-1.744C-25.37,-2.108 -25.38,-2.519 -25.325,-2.967C-24.754,-3.231 -24.313,-3.773 -24.176,-4.362C-23.232,-4.477 -22.502,-4.873 -21.658,-5.628C-21.658,-5.628 -22.041,-5.044 -22.231,-4.723C-22.286,-4.632 -22.344,-4.541 -22.403,-4.439C-22.453,-4.443 -22.499,-4.443 -22.548,-4.443C-23.305,-4.443 -23.913,-4.063 -24.214,-3.398C-24.513,-2.738 -24.435,-1.955 -24.023,-1.487C-23.989,-1.446 -23.952,-1.408 -23.912,-1.373C-23.996,-1.266 -24.045,-1.129 -24.042,-0.976C-24.04,-0.709 -23.874,-0.409 -23.518,-0.284C-23.451,0.615 -22.768,1.218 -21.814,1.218C-21.257,1.218 -20.577,0.951 -20.577,0.951L-20.883,0.486C-21.103,0.16 -21.218,-0.218 -21.253,-0.75C-20.571,-1.276 -20.371,-2.201 -20.648,-3.091C-20.017,-3.701 -19.664,-4.423 -19.348,-5.064C-19.313,-5.138 -19.28,-5.204 -19.247,-5.267C-18.614,-5.115 -17.974,-5.084 -17.54,-5.084C-17.364,-5.084 -17.203,-5.087 -17.065,-5.097C-16.926,-4.624 -16.646,-4.251 -16.238,-4.001C-16.257,-3.536 -16.308,-3.084 -16.486,-2.763L-16.738,-2.313C-16.738,-2.313 -16.072,-2.099 -15.674,-2.099C-15.149,-2.099 -14.68,-2.281 -14.358,-2.604C-14.077,-2.89 -13.926,-3.317 -13.919,-3.755C-13.474,-3.882 -13.325,-4.235 -13.332,-4.51C-13.338,-4.681 -13.4,-4.838 -13.499,-4.955C-13.16,-5.4 -13.135,-6.091 -13.396,-6.661C-13.693,-7.309 -14.364,-7.731 -15.123,-7.756C-15.515,-7.769 -15.858,-7.616 -16.137,-7.489C-16.35,-7.398 -16.532,-7.314 -16.706,-7.314C-16.738,-7.314 -16.77,-7.314 -16.798,-7.324C-16.873,-7.592 -16.915,-7.98 -16.58,-8.352C-16.009,-8.98 -13.531,-11.084 -11.54,-12.777C-11.126,-13.129 -10.75,-13.449 -10.415,-13.735C-9.981,-12.988 -9.342,-12.501 -8.488,-12.293C-8.26,-12.233 -7.904,-12.204 -7.904,-12.204C-7.904,-12.204 -8.095,-13.23 -8.036,-13.95C-7.748,-13.803 -7.448,-13.726 -7.448,-13.726C-7.448,-13.726 -7.414,-14.126 -7.397,-14.26C-7.194,-16.273 -6.755,-18.422 -5.096,-20.585C-5.294,-18.213 -5.79,-16.223 -6.539,-14.842L-7.044,-13.912L-6.043,-14.254C-5.604,-14.407 -5.224,-14.634 -4.892,-14.939C-5.242,-13.06 -6.1,-11.318 -7.212,-11.318C-7.493,-11.318 -7.797,-11.43 -8.112,-11.651L-8.566,-11.967L-8.739,-11.443C-9.074,-10.446 -8.82,-9.783 -8.545,-9.404C-8.169,-8.885 -7.519,-8.573 -6.804,-8.573C-6.237,-8.573 -5.732,-8.699 -5.29,-8.896C-6.296,-7.649 -7.929,-6.518 -9.229,-6.518C-9.55,-6.518 -9.683,-6.633 -9.755,-6.722C-9.987,-7.004 -10.003,-7.579 -9.921,-7.995L-9.814,-8.54L-10.369,-8.484C-10.843,-8.433 -11.392,-8.122 -11.838,-7.652C-12.336,-7.118 -12.614,-6.475 -12.614,-5.84C-12.614,-5 -12.358,-4.284 -11.872,-3.76C-11.767,-3.645 -11.65,-3.541 -11.522,-3.445C-12.489,-2.913 -13.041,-2.028 -13.041,-0.991C-13.041,-0.035 -12.591,0.839 -11.777,1.478C-11.059,2.035 -10.134,2.355 -9.229,2.355C-7.822,2.355 -6.575,1.948 -5.522,1.155C-4.904,0.684 -4.415,0.127 -4.036,-0.383C-3.988,1.915 -3.551,3.814 -2.707,5.451L-2.341,6.164L-1.974,5.451C-1.129,3.814 -0.693,1.915 -0.645,-0.383C-0.266,0.127 0.224,0.684 0.841,1.155C1.894,1.948 3.142,2.355 4.549,2.355C5.45,2.355 6.379,2.035 7.094,1.478C7.91,0.839 8.36,-0.035 8.36,-0.991C8.36,-2.028 7.809,-2.913 6.842,-3.445C6.969,-3.541 7.085,-3.645 7.191,-3.76C7.676,-4.284 7.934,-5 7.934,-5.84C7.934,-6.475 7.655,-7.118 7.155,-7.652C6.712,-8.122 6.162,-8.433 5.685,-8.484C5.549,-8.496 5.131,-8.54 5.131,-8.54L5.24,-7.995C5.323,-7.579 5.306,-7.004 5.074,-6.722C5.003,-6.633 4.866,-6.518 4.549,-6.518C3.249,-6.518 1.615,-7.649 0.608,-8.896C1.052,-8.699 1.555,-8.573 2.123,-8.573C2.837,-8.573 3.489,-8.885 3.863,-9.404C4.136,-9.783 4.39,-10.446 4.059,-11.443L3.885,-11.967L3.434,-11.651C3.117,-11.43 2.812,-11.318 2.531,-11.318C1.417,-11.318 0.561,-13.06 0.211,-14.939C0.543,-14.634 0.923,-14.407 1.362,-14.254L2.362,-13.912L1.86,-14.842C1.11,-16.223 0.614,-18.213 0.411,-20.585C2.074,-18.422 2.512,-16.273 2.716,-14.26C2.729,-14.126 2.769,-13.726 2.769,-13.726C2.769,-13.726 3.068,-13.803 3.356,-13.95C3.414,-13.23 3.223,-12.204 3.223,-12.204C3.223,-12.204 3.576,-12.233 3.804,-12.293C4.661,-12.501 5.299,-12.988 5.735,-13.735C6.068,-13.449 6.445,-13.129 6.86,-12.777C8.851,-11.084 11.328,-8.98 11.899,-8.352C12.233,-7.98 12.192,-7.592 12.118,-7.324C12.087,-7.314 12.054,-7.314 12.026,-7.314C11.849,-7.314 11.667,-7.398 11.454,-7.489C11.178,-7.616 10.833,-7.769 10.444,-7.756C9.683,-7.731 9.01,-7.309 8.716,-6.661C8.454,-6.091 8.479,-5.4 8.819,-4.955C8.718,-4.838 8.658,-4.681 8.65,-4.51C8.642,-4.235 8.793,-3.882 9.237,-3.755C9.245,-3.317 9.397,-2.89 9.678,-2.604C10,-2.281 10.465,-2.099 10.994,-2.099C11.391,-2.099 12.055,-2.313 12.055,-2.313L11.804,-2.763C11.627,-3.084 11.576,-3.536 11.556,-4.001C11.965,-4.251 12.245,-4.624 12.382,-5.097C12.52,-5.087 12.682,-5.084 12.86,-5.084C13.291,-5.084 13.934,-5.115 14.564,-5.267C14.597,-5.204 14.632,-5.138 14.667,-5.064C14.983,-4.423 15.335,-3.701 15.969,-3.091C15.69,-2.201 15.892,-1.276 16.572,-0.75C16.536,-0.218 16.42,0.16 16.202,0.486L15.897,0.951C15.897,0.951 16.577,1.218 17.134,1.218C18.085,1.218 18.767,0.615 18.837,-0.284C19.192,-0.409 19.359,-0.709 19.362,-0.976C19.363,-1.129 19.316,-1.266 19.23,-1.373C19.269,-1.408 19.307,-1.446 19.342,-1.487C19.753,-1.955 19.829,-2.738 19.533,-3.398C19.234,-4.063 18.625,-4.443 17.865,-4.443C17.819,-4.443 17.769,-4.443 17.722,-4.439C17.662,-4.541 17.607,-4.632 17.552,-4.723C17.361,-5.044 16.978,-5.628 16.978,-5.628C17.821,-4.873 18.55,-4.477 19.495,-4.362C19.629,-3.773 20.07,-3.231 20.642,-2.967C20.697,-2.519 20.689,-2.108 20.552,-1.744L20.356,-1.225C20.356,-1.225 20.832,-1.179 21.093,-1.179C21.716,-1.179 22.269,-1.41 22.61,-1.807C22.901,-2.148 23.034,-2.577 22.942,-3.132C23.302,-3.379 23.384,-3.719 23.334,-3.963C23.306,-4.108 23.235,-4.225 23.134,-4.314C23.144,-4.334 23.151,-4.355 23.158,-4.377C23.412,-5.179 23.089,-6.055 22.371,-6.511C22.083,-6.696 21.731,-6.798 21.383,-6.798C20.958,-6.798 20.556,-6.651 20.221,-6.379C19.877,-6.605 19.581,-6.705 19.275,-6.8C19.149,-6.842 18.891,-6.889 18.528,-7.042C19.196,-7.131 19.554,-7.395 20.292,-7.726C20.575,-7.482 21.071,-7.2 21.837,-7.2C22.018,-7.2 22.208,-7.218 22.4,-7.251C22.765,-6.95 23.096,-6.562 23.238,-6.198L23.438,-5.682L23.875,-6.018C24.412,-6.437 24.72,-6.998 24.729,-7.565C24.733,-8.039 24.516,-8.481 24.118,-8.807L24.115,-8.807C24.135,-8.951 24.109,-9.105 24.039,-9.237C23.916,-9.46 23.664,-9.669 23.327,-9.582C23.26,-9.93 23.105,-10.251 22.867,-10.51C22.524,-10.889 22.038,-11.099 21.505,-11.099C20.575,-11.099 19.974,-10.433 19.757,-9.879C19.051,-9.877 18.218,-9.75 17.632,-9.556C16.858,-9.295 16.216,-9.124 15.809,-9.129C15.49,-9.132 15.421,-9.239 15.333,-9.295C15.579,-9.435 15.74,-9.663 15.74,-9.663C15.74,-9.663 15.36,-9.875 15.233,-9.943C14.899,-10.131 14.261,-10.642 13.998,-10.899C14.169,-10.944 14.334,-11.077 14.334,-11.077L13.813,-11.463C13.573,-11.643 12.86,-12.188 12.548,-12.58C12.734,-12.648 12.867,-12.773 12.867,-12.773L12.407,-13.144C12.054,-13.428 11.431,-13.988 11.22,-14.202C11.445,-14.248 11.571,-14.4 11.571,-14.4L11.119,-14.783C10.814,-15.043 10.397,-15.463 9.938,-15.926C10.795,-15.964 11.549,-16.159 12.3,-16.497C12.544,-16.612 12.861,-16.873 12.861,-16.873C12.861,-16.873 11.855,-17.494 11.143,-18.204C11.697,-18.389 12.005,-18.69 12.005,-18.69C12.005,-18.69 11.077,-19.045 9.914,-20.021C10.389,-20.095 10.655,-20.306 10.655,-20.306C10.655,-20.306 9.288,-21.379 8.776,-22.234C9.205,-22.34 9.348,-22.566 9.348,-22.566C9.348,-22.566 8.95,-22.84 8.782,-22.95C8.155,-23.368 6.168,-25.428 5.417,-27.601C5.045,-28.672 4.485,-30.291 1.907,-30.291C1.781,-30.291 1.655,-30.286 1.526,-30.279C1.57,-30.441 1.681,-30.839 1.82,-31.324C2.447,-30.581 3.379,-30.164 4.496,-30.164C4.649,-30.164 4.8,-30.176 4.948,-30.197C5.196,-28.865 5.623,-27.791 5.975,-27.067C6.462,-26.057 7.081,-25.18 7.585,-24.773L7.921,-24.496L8.177,-24.847C8.333,-25.06 8.508,-25.36 8.678,-25.735C9.785,-21.051 11.328,-19.467 12.465,-18.979L13.225,-18.651L13.028,-19.454C12.949,-19.774 12.846,-20.255 12.728,-20.832C13.695,-18.738 15.008,-17.051 16.727,-15.691L17.176,-15.332L17.373,-15.87C17.964,-17.506 17.946,-19.968 17.323,-23.383C17.258,-23.723 17.191,-24.063 17.121,-24.399C17.202,-24.198 17.27,-24.034 17.323,-23.919C18.314,-21.75 19.216,-20.326 20.159,-19.434C21.046,-18.597 22.002,-18.209 23.162,-18.209C23.467,-18.209 23.788,-18.234 24.149,-18.284L25.461,-18.481L24.272,-19.065C23.069,-19.658 20.903,-23.792 19.103,-27.282C21.812,-23.858 24.123,-22.652 27.212,-21.801L27.797,-21.638L27.732,-22.243C27.587,-23.595 27.162,-25.718 25.959,-28.154C25.414,-29.26 24.77,-30.308 24.026,-31.307C25.515,-30.633 26.807,-30.298 27.93,-30.298C29.032,-30.298 29.986,-30.625 30.77,-31.275L31.604,-31.96L30.523,-32.002C29.49,-32.044 27.715,-32.903 25.522,-34.409" style="fill:rgb(35,31,32);fill-rule:nonzero;"/>
            </g>
        </g>
        <g transform="matrix(4.166667,0,0,4.166667,0,0)">
            <g transform="matrix(1,0,0,1,50.5263,86.2039)">
                <path d="M0,-59.415C0.216,-59.415 0.39,-59.589 0.392,-59.801C0.147,-59.796 -0.116,-59.76 -0.38,-59.714C-0.339,-59.542 -0.184,-59.415 0,-59.415M-1.638,-59.427C-1.487,-58.657 -0.813,-58.077 0,-58.077C0.904,-58.077 1.637,-58.791 1.673,-59.688C1.482,-59.718 1.307,-59.744 1.145,-59.76C1.12,-59.15 0.618,-58.662 0,-58.662C-0.543,-58.662 -1,-59.044 -1.119,-59.553C-1.191,-59.533 -1.261,-59.518 -1.33,-59.5C-1.439,-59.474 -1.542,-59.45 -1.638,-59.427M5.288,-48.013C5.171,-47.988 5.053,-47.979 4.935,-47.979C4.349,-47.979 3.795,-48.246 3.712,-48.682C3.909,-48.514 4.361,-48.354 4.828,-48.354C5.166,-48.354 5.517,-48.439 5.785,-48.669C4.983,-50.962 6.983,-55.426 5.712,-57.51C5.712,-57.51 5.68,-57.508 5.627,-57.508C5.461,-57.508 5.082,-57.539 4.857,-57.822L4.878,-57.822C6.187,-57.822 6.981,-58.945 6.338,-59.938C5.966,-59.698 5.499,-59.508 5.067,-59.508C4.885,-59.508 4.714,-59.539 4.557,-59.616C5.957,-59.88 5.822,-60.981 5.226,-61.337C4.741,-61.046 4.081,-60.952 3.327,-60.952C1.992,-60.952 0.363,-61.245 -1.119,-61.245C-1.46,-61.245 -1.796,-61.229 -2.117,-61.19C-2.869,-61.1 -3.193,-60.813 -3.193,-60.349C-3.193,-59.968 -2.707,-59.714 -2.405,-59.714C-1.886,-59.714 -0.558,-60.219 0.493,-60.219C1.478,-60.219 3.318,-59.79 3.894,-59.658C3.76,-59.579 3.485,-59.45 3.103,-59.45C2.973,-59.45 2.835,-59.464 2.686,-59.5C2.473,-59.544 2.271,-59.582 2.085,-59.616C2.013,-58.529 1.107,-57.664 0,-57.664C-1.009,-57.664 -1.853,-58.387 -2.043,-59.341C-2.178,-59.317 -2.299,-59.303 -2.405,-59.303C-2.453,-59.303 -2.502,-59.306 -2.548,-59.313C-2.476,-58.758 -2.31,-58.333 -2.083,-58.103C-1.732,-57.75 -1.216,-57.51 -0.715,-57.278C0.212,-56.847 1.261,-56.36 1.261,-55.056C1.261,-54.104 0.77,-53.579 -0.125,-53.579C-0.32,-53.579 -0.526,-53.603 -0.729,-53.633C0.435,-51.949 -1.915,-49.452 -3.296,-48.669C-2.993,-48.212 -2.464,-48.026 -1.886,-48.026C-1.198,-48.026 -0.436,-48.289 0.098,-48.682C-0.092,-48.082 -0.947,-47.594 -1.86,-47.594C-2.223,-47.594 -2.593,-47.671 -2.939,-47.849C-5.186,-45.711 -5.043,-43.785 -6.015,-42.401L-5.814,-42.401C-4.602,-42.401 -2.158,-42.482 -2.158,-45.388C-2.158,-42.78 0.493,-41.008 0.493,-41.008C0.493,-41.008 3.146,-42.78 3.146,-45.388C3.146,-42.562 5.851,-42.344 6.687,-42.344C6.837,-42.344 6.926,-42.349 6.926,-42.349C6.046,-44.301 5.394,-46.694 5.288,-48.013M-3.505,-54.643C-3.874,-54.448 -4.259,-54.216 -4.808,-54.082C-5.008,-54.033 -5.199,-54.009 -5.375,-54.009C-6.163,-54.009 -6.628,-54.482 -6.452,-55.099C-6.452,-55.099 -5.94,-54.858 -5.401,-54.858C-5.209,-54.858 -5.014,-54.889 -4.839,-54.969C-4.089,-55.316 -3.299,-55.843 -2.169,-55.843C-2.05,-55.843 -1.928,-55.838 -1.798,-55.826C-1.319,-55.779 -1.053,-55.589 -0.905,-55.401C-1.163,-55.438 -1.458,-55.467 -1.746,-55.467C-2.007,-55.467 -2.224,-55.444 -2.412,-55.396C-2.946,-55.264 -3.311,-55.015 -3.498,-54.657C-3.501,-54.654 -3.501,-54.65 -3.505,-54.643M21.141,-58.042C20.486,-57.511 19.6,-56.793 18.733,-56.089C17.88,-55.394 17.189,-54.833 16.655,-54.4C16.548,-53.932 16.405,-53.491 16.255,-53.097C17.247,-53.939 18.833,-54.998 20.626,-55.102L20.686,-55.106C22.96,-56.811 25.253,-58.513 25.981,-59.034C25.432,-58.499 23.219,-56.633 21.045,-54.83L21.055,-54.752C21.164,-54.018 21.124,-53.298 20.979,-52.622C22.831,-54.047 24.726,-55.576 25.212,-56.089C26.324,-57.247 26.97,-58.471 27.306,-60.092C27.206,-60.097 27.107,-60.1 27.003,-60.1C25.46,-60.1 23.713,-59.5 22.254,-58.694C21.904,-58.503 21.528,-58.279 21.141,-58.042M29.403,-48.28C31.399,-49.408 32.474,-50.389 32.229,-51.632C31.241,-50.929 27.776,-49.595 25.389,-48.713C26.983,-48.629 28.298,-48.477 29.403,-48.28M20.843,-52.092C20.568,-51.173 20.115,-50.354 19.622,-49.706C19.644,-49.711 19.666,-49.718 19.681,-49.722C22.872,-51.017 27.642,-52.869 29.932,-53.659C28.362,-52.879 24.385,-51.228 21.576,-50.078C21.863,-50.11 22.135,-50.127 22.396,-50.127C23.369,-50.127 24.217,-49.89 25.216,-49.337L25.359,-49.259C26.788,-50.004 30.115,-52.063 31.246,-54.327C30.95,-54.392 30.563,-54.451 30.013,-54.451C29.049,-54.451 27.575,-54.27 25.173,-53.638C23.686,-53.245 22.122,-52.639 20.843,-52.092M22.304,-53.126C23.19,-53.463 24.147,-53.791 25.066,-54.033C25.858,-54.244 26.581,-54.412 27.24,-54.542C28.6,-55.935 28.949,-56.93 28.488,-57.957C27.913,-57.124 26.353,-56.011 23.977,-54.47C23.479,-54.059 22.904,-53.598 22.304,-53.126M11.144,-31.885C10.915,-32.354 10.707,-32.873 10.519,-33.462C10.562,-30.883 10.59,-27.567 10.59,-27.567C10.59,-27.567 10.31,-30.859 10.091,-33.38C9.956,-33.155 9.795,-32.944 9.612,-32.751C9.2,-32.318 8.712,-32.011 8.187,-31.852C8.678,-29.172 9.988,-27.207 10.678,-26.649C11.072,-27.198 11.746,-28.584 11.934,-30.581C11.642,-30.964 11.377,-31.401 11.144,-31.885M10.471,-46.719C10.378,-46.897 10.293,-47.123 10.243,-47.311C9.849,-48.904 10.123,-50.843 10.987,-52.464C12.032,-54.426 13.857,-56.001 16.268,-57.019L16.363,-57.06C19.085,-59.52 21.24,-60.87 22.966,-62.037C21.129,-60.549 19.102,-59.02 16.813,-56.899L16.838,-56.684C16.895,-56.141 16.865,-55.578 16.78,-55.032C18.563,-56.478 21.111,-58.559 21.761,-59.071C22.825,-59.906 24.109,-61.714 24.524,-63.12C19.438,-62.697 14.894,-59.459 12.665,-57.558C8.786,-54.247 7.144,-49.272 10.471,-46.719M26.953,-36.254C26.162,-36.456 24.632,-36.973 23.73,-37.284L23.331,-37.215C23.196,-37.192 23.06,-37.176 22.921,-37.159C23.481,-36.557 23.916,-36.091 23.984,-36.024C24.825,-35.265 25.592,-34.454 26.29,-33.6C28.088,-32.688 29.557,-32.271 30.764,-32.271C31.806,-32.271 32.652,-32.583 33.341,-33.151C31.689,-33.216 28.949,-35.021 27.386,-36.151C27.242,-36.183 27.098,-36.219 26.953,-36.254M28.281,-40.963C27.605,-41.306 26.363,-41.786 25.179,-42.222C24.37,-41.91 23.28,-41.669 22.191,-41.669C21.988,-41.669 21.79,-41.679 21.599,-41.696C24.941,-40.314 30.083,-38.176 32.462,-37.069C30.093,-37.978 24.916,-39.966 21.57,-41.252C22.603,-40.24 23.343,-39.021 23.658,-37.745C24.506,-37.449 26.221,-36.864 27.053,-36.654C28.281,-36.34 29.409,-36.228 30.384,-36.228C31.872,-36.228 32.99,-36.489 33.511,-36.676C32.977,-37.987 31.231,-39.484 28.281,-40.963M23.704,-35.72C23.648,-35.776 23.104,-36.36 22.399,-37.119C22.301,-37.118 22.208,-37.115 22.11,-37.115C21.048,-37.115 19.967,-37.337 18.904,-37.776C21.937,-34.023 27.187,-27.544 29.195,-24.941C26.807,-27.684 21.943,-33.471 18.535,-37.56C18.848,-37.008 19.094,-36.456 19.272,-35.896C19.574,-34.945 19.676,-33.975 19.574,-33.002C23.564,-26.517 26.196,-24.849 30.157,-23.758C29.792,-27.141 28.05,-31.791 23.704,-35.72M15.416,-34.058C16.616,-29.347 18.473,-22.311 19.399,-18.881C18.365,-22.07 16.246,-29.304 14.914,-33.883C14.953,-33.508 14.973,-33.155 14.973,-32.818C14.979,-31.371 14.653,-30.216 13.981,-29.288L13.928,-29.212C14.851,-25.496 15.61,-20.899 19.819,-17.576C21.053,-20.988 19.179,-27.846 18.008,-31.927C17.067,-32.374 16.184,-33.107 15.416,-34.058M21.145,-29.479C20.965,-29.824 20.661,-30.417 20.322,-31.069C20.049,-31.479 19.768,-31.914 19.482,-32.371C19.451,-32.212 19.414,-32.053 19.374,-31.892L19.268,-31.487L18.861,-31.6C18.739,-31.637 18.617,-31.678 18.492,-31.722C18.7,-31.012 18.916,-30.235 19.133,-29.416C19.718,-27.755 20.298,-26.164 20.533,-25.652C22.507,-21.331 24.054,-20.181 25.997,-20.181C26.295,-20.181 26.603,-20.209 26.925,-20.257C25.503,-20.954 23.204,-25.487 21.145,-29.479M13.775,-28.094C13.691,-28.449 13.61,-28.788 13.527,-29.12L13.426,-29.184C13.012,-29.454 12.639,-29.768 12.297,-30.141C12.191,-29.301 12.002,-28.566 11.785,-27.964C12.913,-22.755 14.531,-21.32 15.462,-20.921C15.29,-21.61 15.01,-23.029 14.717,-24.588C14.324,-25.795 14.041,-26.989 13.775,-28.094M10.074,-34.386C9.617,-33.968 9,-33.72 8.347,-33.72C7.972,-33.72 7.606,-33.797 7.255,-33.953C6.757,-33.438 5.963,-33.206 5.322,-33.206C5.171,-33.206 5.03,-33.217 4.895,-33.242C5.386,-32.613 6.167,-32.138 7.33,-32.138C8.652,-32.138 9.76,-33.191 10.074,-34.386M19.224,-49.865C20.215,-51.116 20.909,-52.927 20.648,-54.693C18.861,-54.588 17.159,-53.413 16.054,-52.361C16.628,-52.088 17.126,-51.593 17.374,-50.887L19.819,-53.743C19.515,-53.341 18.454,-51.768 17.672,-50.598C18.267,-50.526 18.812,-50.266 19.224,-49.865M7.144,-34.476C7.543,-34.236 7.956,-34.129 8.347,-34.129C9.242,-34.129 10.028,-34.685 10.33,-35.461C10.758,-35.116 11.252,-34.957 11.734,-34.957C12.739,-34.957 13.694,-35.66 13.891,-36.886C14.258,-36.655 14.646,-36.553 15.02,-36.553C16.335,-36.553 17.508,-37.818 17.144,-39.312C17.226,-39.305 17.304,-39.304 17.386,-39.304C19.348,-39.304 20.24,-41.288 19.243,-42.74C20.964,-43.321 21.211,-45.952 19.203,-46.821C20.196,-48.491 19.019,-50.209 17.336,-50.209C17.263,-50.209 17.185,-50.207 17.107,-50.199C16.96,-51.55 15.866,-52.205 14.943,-52.205L14.932,-52.205C13.827,-52.2 12.748,-51.343 12.748,-50.008C11.222,-50.004 10.59,-48.649 10.59,-47.837C10.59,-46.944 11.322,-45.896 12.566,-45.682C12.78,-46.193 13.122,-46.72 13.783,-47.022C13.463,-48.046 13.971,-48.886 14.322,-49.468C14.397,-49.59 14.81,-50.364 14.81,-50.364C14.81,-50.364 15.371,-49.696 15.471,-49.59C15.936,-49.096 16.611,-48.374 16.508,-47.307C17.556,-47.075 18.03,-46.213 18.359,-45.616C18.428,-45.489 18.888,-44.748 18.888,-44.748C18.888,-44.748 18.027,-44.594 17.888,-44.561C17.546,-44.48 17.156,-44.39 16.74,-44.39C16.603,-44.39 16.472,-44.4 16.345,-44.418C16.497,-42.946 16.108,-41.608 15.192,-40.424C13.179,-37.829 9.036,-36.609 5.66,-36.515C5.604,-36.194 5.53,-35.918 5.473,-35.726C5.336,-35.274 5.098,-34.447 4.876,-33.666C5.012,-33.633 5.166,-33.618 5.322,-33.618C6.009,-33.618 6.805,-33.924 7.144,-34.476M25.145,-48.315C24.681,-47.521 23.958,-46.823 23.029,-46.276C22.882,-46.193 22.732,-46.114 22.579,-46.037C26.334,-46.15 30.352,-46.216 32.36,-46.29C30.734,-46.144 26.014,-45.86 22.838,-45.668C23.361,-45.521 23.884,-45.296 24.396,-44.994C25.128,-44.558 25.812,-43.975 26.279,-43.391C30.803,-44.067 32.187,-45.113 33.811,-46.406C32.223,-47.237 29.95,-48.084 25.145,-48.315M6.497,-39.083C6.439,-38.891 6.375,-38.705 6.315,-38.523C6.131,-37.975 5.96,-37.456 5.861,-36.978L5.851,-36.933C10.6,-37.128 16.54,-39.577 15.917,-44.528C15.732,-44.597 15.556,-44.688 15.392,-44.806C15.246,-44.646 15.091,-44.524 14.931,-44.424C15.154,-40.566 10.818,-39.139 6.497,-39.083M6.969,-41.917C7.037,-41.126 6.861,-40.293 6.625,-39.495C9.963,-39.559 12.544,-40.42 13.743,-41.884C14.28,-42.54 14.539,-43.325 14.524,-44.225C14.041,-44.044 13.574,-44.044 13.306,-44.044C13.202,-44.044 11.985,-44.022 11.985,-44.022C11.985,-44.022 12.282,-44.844 12.322,-44.984C12.352,-45.076 12.383,-45.178 12.416,-45.279C11.822,-45.349 11.412,-45.673 11.412,-45.673C11.512,-44.874 11.412,-43.894 11.003,-43.283C10.166,-42.023 8.48,-41.919 6.969,-41.917M14.931,-52.617L14.943,-52.617C15.148,-52.617 15.363,-52.588 15.57,-52.537C16.021,-53.49 16.591,-55.146 16.428,-56.637C12.23,-54.866 10.529,-51.666 10.471,-48.999C10.806,-49.662 11.428,-50.259 12.363,-50.393C12.403,-50.7 12.498,-50.985 12.627,-51.237C13.115,-52.426 13.761,-53.298 15.586,-55.413C14.589,-54.007 14.069,-53.164 13.68,-52.292C14.066,-52.501 14.502,-52.615 14.931,-52.617M12.587,-44.459C12.643,-44.46 12.697,-44.462 12.754,-44.462C12.925,-44.462 13.113,-44.457 13.306,-44.457C13.998,-44.457 14.8,-44.549 15.329,-45.4C15.778,-44.939 16.265,-44.801 16.74,-44.801C17.278,-44.801 17.8,-44.984 18.211,-45.05C17.793,-45.705 17.405,-46.908 16.024,-46.956C16.403,-48.282 15.382,-49.025 14.888,-49.622C14.528,-48.937 13.68,-47.996 14.331,-46.776C12.989,-46.446 12.856,-45.186 12.587,-44.459M25.968,-43.118C25.224,-44.063 23.452,-45.452 21.466,-45.452C21.293,-45.452 21.121,-45.443 20.944,-45.419C21.01,-45.171 21.041,-44.905 21.032,-44.633C21.024,-44.449 20.996,-44.272 20.953,-44.099C22.618,-43.744 24.891,-43.226 24.891,-43.226C24.891,-43.226 22.4,-43.529 20.831,-43.719C20.626,-43.226 20.272,-42.819 19.821,-42.554L19.821,-42.552C20.566,-42.212 21.39,-42.082 22.191,-42.082C23.884,-42.082 25.473,-42.673 25.968,-43.118M29.28,-40.907C32.15,-41.274 33.168,-42.212 33.398,-43.279C32.763,-42.971 30.861,-42.825 28.57,-42.825C27.848,-42.825 27.085,-42.841 26.309,-42.869L26.245,-42.809C26.115,-42.693 25.935,-42.574 25.718,-42.462C26.996,-41.985 27.93,-41.602 28.466,-41.332C28.75,-41.19 29.019,-41.049 29.28,-40.907M23.265,-37.619C22.89,-39.177 21.759,-40.829 20.007,-41.986C20.132,-41.405 20.056,-40.792 19.775,-40.257C19.758,-40.228 19.742,-40.202 19.727,-40.173C20.902,-39.312 22.56,-38.069 22.56,-38.069C22.56,-38.069 20.773,-39.121 19.499,-39.842C19.054,-39.295 18.391,-38.958 17.628,-38.901C18.676,-38.23 20.285,-37.527 22.11,-37.527C22.488,-37.527 22.872,-37.556 23.265,-37.619M20.807,-45.813C22.587,-46.276 24.325,-47.346 25.015,-48.977C24.087,-49.49 23.316,-49.715 22.396,-49.715C21.639,-49.715 20.782,-49.563 19.662,-49.293C19.971,-48.737 20.053,-48.111 19.914,-47.492C21.513,-47.948 23.81,-48.624 23.81,-48.624C23.81,-48.624 21.475,-47.619 19.761,-46.993C20.233,-46.699 20.594,-46.291 20.807,-45.813M18.976,-31.997C19.591,-34.359 18.9,-36.44 17.576,-38.281C17.501,-37.875 17.328,-37.487 17.066,-37.155C16.946,-36.998 16.807,-36.86 16.655,-36.737L18.554,-32.771C18.554,-32.771 17.181,-34.988 16.276,-36.475C15.893,-36.261 15.459,-36.142 15.02,-36.142C14.855,-36.142 14.69,-36.158 14.531,-36.191C15.608,-34.064 17.214,-32.501 18.976,-31.997M10.564,-34.824C10.928,-34.64 11.324,-34.545 11.734,-34.545C11.911,-34.545 12.083,-34.564 12.249,-34.597C12.718,-32.868 13.448,-30.395 13.448,-30.395C13.448,-30.395 13.009,-32.93 12.694,-34.73C13.313,-34.979 13.814,-35.471 14.094,-36.117C14.746,-33.456 14.819,-31.144 13.648,-29.53C12.026,-30.577 11.163,-32.407 10.564,-34.824M9.594,-17.971C10.054,-17.227 10.606,-16.325 10.739,-16.09C10.552,-16.278 9.83,-17.085 9.237,-17.748C9.2,-17.275 9.129,-16.84 9.021,-16.444C9.605,-15.824 10.295,-15.627 11.024,-15.562C11.321,-16.144 11.212,-17.024 11.089,-17.593C10.596,-17.675 10.095,-17.801 9.594,-17.971M12.445,-17.885C11.299,-17.885 10.068,-18.165 8.852,-18.699C8.896,-16.475 8.248,-14.681 6.537,-14.25C6.537,-14.25 6.678,-15.269 6.573,-15.73C7.386,-16.401 8.14,-17.899 7.26,-20.079C7.621,-17.729 6.987,-16.32 5.96,-15.862C5.773,-17.735 5.369,-20.29 3.197,-22.864C3.163,-23.428 3.146,-24.012 3.146,-24.613C3.146,-27 3.695,-30.031 4.133,-31.41C4.347,-31.431 4.549,-31.44 4.741,-31.44C6.979,-31.44 7.475,-30.15 7.864,-29.029C8.628,-26.812 10.649,-24.661 11.391,-24.168C11.134,-24.109 10.869,-24.078 10.6,-24.078C9.286,-24.078 7.898,-24.75 7.301,-25.917C5.845,-25.958 5.064,-26.451 4.133,-27.366C4.917,-26.013 5.941,-25.619 7.095,-25.487C7.691,-24.379 9.061,-23.669 10.568,-23.669C10.772,-23.669 10.978,-23.682 11.183,-23.708C11.606,-22.968 12.341,-22.347 12.765,-22.012C12.434,-21.923 12.01,-21.859 11.543,-21.859C10.335,-21.859 8.812,-22.278 7.674,-23.786L7.654,-23.786C6.058,-23.786 4.91,-24.722 4.133,-25.335C4.795,-24.318 6.041,-23.323 7.604,-23.266C8.407,-22.146 9.863,-21.445 11.432,-21.445C11.697,-21.445 11.969,-21.46 12.239,-21.503C12.79,-20.916 13.656,-20.385 13.984,-20.219C13.558,-20.006 12.827,-19.858 12.003,-19.858C10.452,-19.858 8.579,-20.377 7.826,-21.92C7.736,-21.913 7.647,-21.913 7.559,-21.913C5.992,-21.913 4.983,-22.737 4.133,-23.4C4.907,-22.2 6.129,-21.397 7.596,-21.397L7.623,-21.397C8.477,-19.965 10.324,-19.421 11.911,-19.421C12.503,-19.421 13.062,-19.497 13.517,-19.63C14.1,-19.088 14.42,-18.75 14.951,-18.43C14.209,-18.064 13.357,-17.885 12.445,-17.885M9.322,-4.728C9.395,-4.159 8.68,-2.7 7.383,-2.7C5.28,-2.7 2.867,-6.203 2.178,-7.26C2.142,-6.795 2.085,-6.343 2.011,-5.905C2.631,-4.8 4.589,-1.558 7.383,-1.558C8.667,-1.558 9.931,-2.257 9.621,-3.65C10.199,-2.448 9.189,-1.151 7.383,-1.151C5.369,-1.151 3.235,-2.717 2.056,-4.955C2.135,-4.151 2.185,-3.383 2.193,-2.659C3.123,-1.253 4.608,0.382 7.383,0.382C8.965,0.382 10.783,-0.749 10.783,-2.552C10.783,-3.419 10.335,-4.24 9.322,-4.728M-1.066,-4.955C-2.247,-2.717 -4.38,-1.151 -6.394,-1.151C-8.202,-1.151 -9.213,-2.448 -8.634,-3.65C-8.946,-2.257 -7.68,-1.558 -6.394,-1.558C-3.601,-1.558 -1.642,-4.8 -1.023,-5.905C-1.096,-6.343 -1.15,-6.795 -1.191,-7.26C-1.878,-6.203 -4.293,-2.7 -6.394,-2.7C-7.693,-2.7 -8.407,-4.159 -8.335,-4.728C-9.347,-4.24 -9.795,-3.419 -9.795,-2.552C-9.795,-0.749 -7.977,0.382 -6.394,0.382C-3.622,0.382 -2.134,-1.253 -1.205,-2.659C-1.194,-3.383 -1.149,-4.151 -1.066,-4.955M0.856,-2.196L0.643,-1.807C0.586,-0.447 0.529,0.992 0.493,2.027C0.459,0.992 0.403,-0.447 0.346,-1.81L0.134,-2.196C-0.17,-2.746 -0.463,-3.511 -0.704,-4.411C-0.965,-1.332 -0.696,1.396 0.493,3.705C1.682,1.396 1.953,-1.332 1.692,-4.411C1.452,-3.511 1.155,-2.746 0.856,-2.196M8.477,-9.636C8.587,-9.091 8.65,-7.666 7.383,-7.666C5.671,-7.666 3.518,-9.364 2.58,-10.976C2.34,-11.168 2.124,-11.377 1.942,-11.582C2.056,-11.046 2.131,-10.502 2.178,-9.964C2.693,-9.054 3.632,-8.031 4.628,-7.388C5.595,-6.765 6.569,-6.401 7.383,-6.401C7.946,-6.401 8.443,-6.574 8.727,-6.91C9.049,-7.287 9.161,-7.864 9.052,-8.609C9.331,-7.779 9.307,-7.128 8.989,-6.681C8.701,-6.275 8.091,-6.058 7.383,-6.058C5.59,-6.058 3.607,-7.21 2.229,-9.126C2.24,-8.697 2.239,-8.278 2.216,-7.864C2.768,-7.182 3.449,-6.399 3.841,-6.089C4.424,-5.628 5.995,-4.779 7.383,-4.779C9.665,-4.779 10.356,-6.102 10.356,-7.401C10.356,-8.576 9.206,-9.559 8.477,-9.636M-1.242,-9.126C-2.621,-7.21 -4.599,-6.058 -6.394,-6.058C-7.104,-6.058 -7.713,-6.275 -8.002,-6.681C-8.318,-7.128 -8.343,-7.779 -8.065,-8.609C-8.173,-7.864 -8.062,-7.287 -7.738,-6.91C-7.454,-6.574 -6.959,-6.401 -6.394,-6.401C-5.581,-6.401 -4.606,-6.765 -3.639,-7.388C-2.647,-8.031 -1.704,-9.054 -1.191,-9.964C-1.141,-10.502 -1.066,-11.046 -0.953,-11.582C-1.135,-11.377 -1.349,-11.168 -1.592,-10.976C-2.527,-9.364 -4.682,-7.666 -6.394,-7.666C-7.663,-7.666 -7.598,-9.091 -7.49,-9.636C-8.219,-9.559 -9.368,-8.576 -9.368,-7.401C-9.368,-6.102 -8.676,-4.779 -6.394,-4.779C-5.007,-4.779 -3.436,-5.628 -2.856,-6.089C-2.463,-6.399 -1.778,-7.182 -1.23,-7.864C-1.249,-8.278 -1.252,-8.697 -1.242,-9.126M0.822,-11.168L0.681,-10.991C0.621,-8.753 0.528,-5.28 0.493,-4.144C0.46,-5.28 0.367,-8.753 0.305,-10.991L0.167,-11.168C-0.048,-11.45 -0.232,-11.786 -0.387,-12.168C-1.417,-8.407 -0.496,-4.192 0.493,-2.398C1.483,-4.192 2.405,-8.407 1.376,-12.168C1.221,-11.786 1.038,-11.45 0.822,-11.168M6.504,-12.875C6.102,-12.594 5.721,-12.467 5.366,-12.467C3.883,-12.467 2.854,-14.677 2.549,-17.003C2.546,-17.029 2.543,-17.054 2.54,-17.079C2.435,-17.233 2.336,-17.392 2.24,-17.57C2.204,-16.693 2.142,-15.773 2.024,-14.883C2.336,-13.609 3.529,-11.677 4.958,-11.677C5.266,-11.677 5.895,-11.774 6.226,-12.165C6.098,-11.619 5.361,-11.427 4.958,-11.427C3.146,-11.427 2.17,-13.358 1.898,-14.079C1.821,-13.655 1.73,-13.245 1.618,-12.867C1.802,-12.308 2.952,-10.547 4.958,-10.547C5.992,-10.547 7.015,-11.341 6.504,-12.875M-3.969,-11.427C-4.371,-11.427 -5.113,-11.619 -5.238,-12.165C-4.907,-11.774 -4.28,-11.677 -3.969,-11.677C-2.541,-11.677 -1.346,-13.609 -1.036,-14.883C-1.154,-15.773 -1.216,-16.693 -1.25,-17.57C-1.346,-17.392 -1.448,-17.233 -1.553,-17.079C-1.554,-17.054 -1.559,-17.029 -1.559,-17.003C-1.864,-14.677 -2.896,-12.467 -4.378,-12.467C-4.732,-12.467 -5.113,-12.594 -5.514,-12.875C-6.025,-11.341 -5.004,-10.547 -3.969,-10.547C-1.963,-10.547 -0.813,-12.308 -0.628,-12.867C-0.741,-13.248 -0.836,-13.655 -0.911,-14.079C-1.179,-13.358 -2.157,-11.427 -3.969,-11.427M1.316,-20.431C1.173,-20.1 1.011,-19.805 0.824,-19.553L0.744,-19.446C0.643,-16.553 0.493,-12.541 0.493,-12.534C0.493,-12.541 0.346,-16.553 0.245,-19.446L0.163,-19.553C-0.022,-19.805 -0.184,-20.1 -0.329,-20.431C-0.489,-19.635 -0.671,-18.968 -0.876,-18.417C-0.868,-18.28 -0.862,-18.153 -0.858,-18.036C-0.78,-15.711 -0.54,-12.759 0.493,-11.421C1.53,-12.759 1.765,-15.711 1.845,-18.036C1.85,-18.153 1.857,-18.28 1.864,-18.417C1.659,-18.968 1.478,-19.635 1.316,-20.431M2.735,-24.613C2.735,-26.952 3.267,-30.003 3.725,-31.483C3.607,-31.502 3.437,-31.537 3.235,-31.593C3.014,-30.824 2.647,-30.092 2.266,-29.466C2.266,-29.416 2.27,-29.365 2.27,-29.314C2.303,-28.671 2.501,-24.112 1.596,-21.188C2.135,-18.038 2.928,-16.69 4.331,-16.207C3.192,-18.302 2.735,-21.499 2.735,-24.613M-1.281,-29.314C-1.28,-29.365 -1.28,-29.413 -1.277,-29.464C-1.661,-30.089 -2.027,-30.824 -2.25,-31.593C-2.449,-31.537 -2.618,-31.502 -2.735,-31.486C-2.28,-30.008 -1.746,-26.952 -1.746,-24.613C-1.746,-21.499 -2.205,-18.302 -3.342,-16.207C-1.941,-16.69 -1.148,-18.038 -0.608,-21.188C-1.513,-24.114 -1.315,-28.671 -1.281,-29.314M1.877,-28.866C1.98,-26.162 1.814,-21.567 0.493,-19.803C-0.826,-21.565 -0.994,-26.156 -0.889,-28.864C-0.345,-28.071 0.147,-27.547 0.192,-27.496L0.305,-27.382C0.379,-25.266 0.466,-22.983 0.493,-22.266C0.523,-22.983 0.607,-25.266 0.684,-27.382L0.795,-27.496C0.839,-27.547 1.329,-28.076 1.877,-28.866M1.905,-32.194C1.42,-32.512 0.886,-33.005 0.492,-33.748C0.099,-33.005 -0.435,-32.512 -0.919,-32.194C-1.244,-31.98 -1.567,-31.828 -1.856,-31.721C-1.261,-29.645 0.492,-27.778 0.492,-27.778C0.492,-27.778 2.247,-29.645 2.843,-31.721C2.551,-31.828 2.229,-31.98 1.905,-32.194M3.61,-37.307C2.774,-35.523 1.211,-34.304 0.814,-34.016C1.806,-32.042 3.941,-31.871 3.941,-31.871C3.941,-31.871 4.763,-34.817 5.079,-35.846C5.162,-36.113 5.226,-36.396 5.273,-36.684C5.038,-36.743 4.381,-36.934 3.61,-37.307M-2.622,-37.307C-3.392,-36.934 -4.054,-36.743 -4.288,-36.684C-4.242,-36.396 -4.174,-36.113 -4.09,-35.846C-3.778,-34.817 -2.954,-31.871 -2.954,-31.871C-2.954,-31.871 -0.818,-32.042 0.169,-34.016C-0.227,-34.307 -1.786,-35.523 -2.622,-37.307M2.843,-37.722C1.66,-38.45 0.865,-39.361 0.492,-40.408C0.121,-39.361 -0.672,-38.45 -1.856,-37.722C-1.989,-37.641 -2.121,-37.567 -2.254,-37.495C-1.349,-35.558 0.492,-34.292 0.492,-34.292C0.492,-34.292 2.336,-35.558 3.239,-37.495C3.11,-37.567 2.976,-37.641 2.843,-37.722M4.413,-42.441C3.874,-42.721 3.461,-43.108 3.179,-43.592C2.518,-42.037 1.191,-40.998 0.817,-40.734C1.644,-37.942 5.457,-37.063 5.457,-37.063C5.774,-38.554 6.723,-40.36 6.555,-41.932C6.042,-41.946 5.188,-42.035 4.413,-42.441M0.167,-40.734C-0.659,-37.942 -4.47,-37.063 -4.47,-37.063C-4.792,-38.57 -5.82,-40.402 -5.574,-41.993C-5.014,-41.996 -4.116,-42.05 -3.347,-42.437C-2.831,-42.695 -2.438,-43.068 -2.169,-43.538C-1.503,-42.018 -0.202,-41.001 0.167,-40.734M-21.265,-58.694C-22.725,-59.5 -24.473,-60.1 -26.016,-60.1C-26.118,-60.1 -26.219,-60.097 -26.319,-60.092C-25.98,-58.471 -25.336,-57.247 -24.227,-56.089C-23.736,-55.576 -21.843,-54.047 -19.991,-52.622C-20.134,-53.298 -20.176,-54.018 -20.068,-54.752L-20.057,-54.83C-22.231,-56.633 -24.444,-58.499 -24.993,-59.034C-24.265,-58.513 -21.97,-56.811 -19.7,-55.106L-19.636,-55.102C-17.845,-54.998 -16.26,-53.939 -15.269,-53.097C-15.417,-53.491 -15.559,-53.932 -15.667,-54.4C-16.201,-54.833 -16.888,-55.394 -17.745,-56.089C-18.614,-56.793 -19.498,-57.511 -20.151,-58.042C-20.54,-58.279 -20.919,-58.503 -21.265,-58.694M-24.402,-48.713C-26.789,-49.595 -30.252,-50.929 -31.242,-51.632C-31.485,-50.389 -30.412,-49.408 -28.415,-48.28C-27.31,-48.477 -25.995,-48.629 -24.402,-48.713M-24.183,-53.638C-26.587,-54.27 -28.061,-54.451 -29.024,-54.451C-29.576,-54.451 -29.961,-54.392 -30.259,-54.327C-29.126,-52.063 -25.803,-50.004 -24.37,-49.259L-24.228,-49.337C-23.227,-49.89 -22.383,-50.127 -21.408,-50.127C-21.147,-50.127 -20.874,-50.11 -20.588,-50.078C-23.401,-51.228 -27.374,-52.879 -28.944,-53.659C-26.653,-52.869 -21.883,-51.017 -18.693,-49.722C-18.677,-49.718 -18.658,-49.711 -18.637,-49.706C-19.126,-50.354 -19.579,-51.173 -19.854,-52.092C-21.135,-52.639 -22.7,-53.245 -24.183,-53.638M-22.991,-54.47C-25.364,-56.011 -26.924,-57.124 -27.5,-57.957C-27.964,-56.93 -27.614,-55.935 -26.252,-54.542C-25.593,-54.412 -24.868,-54.244 -24.078,-54.033C-23.159,-53.791 -22.203,-53.463 -21.314,-53.126C-21.917,-53.598 -22.491,-54.059 -22.991,-54.47M-10.945,-30.581C-10.758,-28.584 -10.086,-27.198 -9.689,-26.649C-9.003,-27.207 -7.689,-29.172 -7.198,-31.852C-7.722,-32.011 -8.212,-32.318 -8.624,-32.751C-8.808,-32.944 -8.968,-33.155 -9.104,-33.38C-9.32,-30.859 -9.603,-27.567 -9.603,-27.567C-9.603,-27.567 -9.572,-30.883 -9.531,-33.462C-9.722,-32.873 -9.926,-32.354 -10.153,-31.885C-10.392,-31.401 -10.655,-30.964 -10.945,-30.581M-11.68,-57.558C-13.906,-59.459 -18.449,-62.697 -23.535,-63.12C-23.122,-61.714 -21.84,-59.906 -20.776,-59.071C-20.124,-58.559 -17.574,-56.478 -15.792,-55.032C-15.876,-55.578 -15.909,-56.141 -15.849,-56.684L-15.825,-56.899C-18.113,-59.02 -20.139,-60.549 -21.976,-62.037C-20.252,-60.87 -18.095,-59.52 -15.375,-57.06L-15.28,-57.019C-12.868,-56.001 -11.04,-54.426 -9.998,-52.464C-9.137,-50.843 -8.863,-48.904 -9.258,-47.311C-9.303,-47.123 -9.39,-46.897 -9.483,-46.719C-6.155,-49.272 -7.797,-54.247 -11.68,-57.558M-26.399,-36.151C-27.964,-35.021 -30.699,-33.216 -32.355,-33.151C-31.664,-32.583 -30.818,-32.271 -29.779,-32.271C-28.57,-32.271 -27.098,-32.688 -25.302,-33.6C-24.607,-34.454 -23.837,-35.265 -22.995,-36.024C-22.929,-36.091 -22.493,-36.557 -21.934,-37.159C-22.073,-37.176 -22.207,-37.192 -22.344,-37.215L-22.743,-37.284C-23.646,-36.973 -25.173,-36.456 -25.964,-36.254C-26.109,-36.219 -26.255,-36.183 -26.399,-36.151M-32.52,-36.676C-32.001,-36.489 -30.883,-36.228 -29.395,-36.228C-28.423,-36.228 -27.29,-36.34 -26.065,-36.654C-25.232,-36.864 -23.52,-37.449 -22.668,-37.745C-22.357,-39.021 -21.614,-40.24 -20.582,-41.252C-23.927,-39.966 -29.104,-37.978 -31.472,-37.069C-29.097,-38.176 -23.951,-40.314 -20.61,-41.696C-20.802,-41.679 -20.999,-41.669 -21.202,-41.669C-22.293,-41.669 -23.385,-41.91 -24.194,-42.222C-25.375,-41.786 -26.613,-41.306 -27.293,-40.963C-30.245,-39.484 -31.988,-37.987 -32.52,-36.676M-29.169,-23.758C-25.209,-24.849 -22.575,-26.517 -18.588,-33.002C-18.689,-33.975 -18.589,-34.945 -18.283,-35.896C-18.106,-36.456 -17.859,-37.008 -17.545,-37.56C-20.955,-33.471 -25.822,-27.684 -28.207,-24.941C-26.202,-27.544 -20.951,-34.023 -17.916,-37.776C-18.98,-37.337 -20.058,-37.115 -21.122,-37.115C-21.218,-37.115 -21.314,-37.118 -21.411,-37.119C-22.115,-36.36 -22.66,-35.776 -22.718,-35.72C-27.061,-31.791 -28.804,-27.141 -29.169,-23.758M-17.02,-31.927C-18.192,-27.846 -20.068,-20.988 -18.83,-17.576C-14.623,-20.899 -13.861,-25.496 -12.939,-29.212L-12.994,-29.288C-13.665,-30.216 -13.992,-31.371 -13.985,-32.818C-13.985,-33.155 -13.963,-33.508 -13.926,-33.883C-15.257,-29.304 -17.374,-22.07 -18.411,-18.881C-17.485,-22.311 -15.632,-29.347 -14.428,-34.058C-15.195,-33.107 -16.079,-32.374 -17.02,-31.927M-25.935,-20.257C-25.616,-20.209 -25.309,-20.181 -25.007,-20.181C-23.068,-20.181 -21.519,-21.331 -19.546,-25.652C-19.311,-26.164 -18.728,-27.755 -18.145,-29.416C-17.927,-30.235 -17.712,-31.012 -17.508,-31.722C-17.629,-31.678 -17.751,-31.637 -17.874,-31.6L-18.279,-31.487L-18.385,-31.892C-18.426,-32.053 -18.461,-32.212 -18.493,-32.371C-18.78,-31.914 -19.06,-31.479 -19.338,-31.069C-19.674,-30.417 -19.976,-29.824 -20.157,-29.479C-22.217,-25.487 -24.516,-20.954 -25.935,-20.257M-13.727,-24.588C-14.024,-23.029 -14.305,-21.61 -14.475,-20.921C-13.543,-21.32 -11.926,-22.755 -10.797,-27.964C-11.015,-28.566 -11.199,-29.301 -11.311,-30.141C-11.65,-29.768 -12.024,-29.454 -12.438,-29.184L-12.54,-29.12C-12.62,-28.788 -12.703,-28.449 -12.788,-28.094C-13.052,-26.989 -13.337,-25.795 -13.727,-24.588M-6.34,-32.138C-5.179,-32.138 -4.396,-32.613 -3.909,-33.242C-4.041,-33.217 -4.185,-33.206 -4.332,-33.206C-4.975,-33.206 -5.768,-33.438 -6.266,-33.953C-6.619,-33.797 -6.985,-33.72 -7.358,-33.72C-8.011,-33.72 -8.627,-33.968 -9.089,-34.386C-8.771,-33.191 -7.664,-32.138 -6.34,-32.138M-16.685,-50.598C-17.465,-51.768 -18.526,-53.341 -18.83,-53.743L-16.384,-50.887C-16.14,-51.593 -15.64,-52.088 -15.066,-52.361C-16.173,-53.413 -17.874,-54.588 -19.66,-54.693C-19.925,-52.927 -19.226,-51.116 -18.235,-49.865C-17.826,-50.266 -17.279,-50.526 -16.685,-50.598M-4.332,-33.618C-4.175,-33.618 -4.027,-33.633 -3.887,-33.666C-4.109,-34.447 -4.346,-35.274 -4.484,-35.726C-4.542,-35.918 -4.614,-36.194 -4.671,-36.515C-8.047,-36.609 -12.189,-37.829 -14.203,-40.424C-15.119,-41.608 -15.507,-42.946 -15.358,-44.418C-15.483,-44.4 -15.614,-44.39 -15.749,-44.39C-16.173,-44.39 -16.557,-44.48 -16.899,-44.561C-17.04,-44.594 -17.901,-44.748 -17.901,-44.748C-17.901,-44.748 -17.44,-45.489 -17.371,-45.616C-17.043,-46.213 -16.568,-47.075 -15.52,-47.307C-15.622,-48.374 -14.948,-49.096 -14.483,-49.59C-14.384,-49.696 -13.82,-50.364 -13.82,-50.364C-13.82,-50.364 -13.408,-49.59 -13.333,-49.468C-12.983,-48.886 -12.471,-48.046 -12.795,-47.022C-12.133,-46.72 -11.792,-46.193 -11.578,-45.682C-10.335,-45.896 -9.603,-46.944 -9.603,-47.837C-9.603,-48.649 -10.236,-50.004 -11.761,-50.008C-11.761,-51.343 -12.837,-52.2 -13.943,-52.205L-13.951,-52.205C-14.877,-52.205 -15.971,-51.55 -16.123,-50.199C-16.197,-50.207 -16.274,-50.209 -16.349,-50.209C-18.03,-50.209 -19.207,-48.491 -18.217,-46.821C-20.221,-45.952 -19.974,-43.321 -18.256,-42.74C-19.251,-41.288 -18.36,-39.304 -16.397,-39.304C-16.316,-39.304 -16.24,-39.305 -16.157,-39.312C-16.519,-37.818 -15.347,-36.553 -14.032,-36.553C-13.657,-36.553 -13.27,-36.655 -12.902,-36.886C-12.706,-35.66 -11.751,-34.957 -10.746,-34.957C-10.263,-34.957 -9.769,-35.116 -9.343,-35.461C-9.041,-34.685 -8.253,-34.129 -7.358,-34.129C-6.966,-34.129 -6.556,-34.236 -6.155,-34.476C-5.819,-33.924 -5.021,-33.618 -4.332,-33.618M-32.824,-46.406C-31.198,-45.113 -29.815,-44.067 -25.291,-43.391C-24.828,-43.975 -24.143,-44.558 -23.408,-44.994C-22.896,-45.296 -22.374,-45.521 -21.85,-45.668C-25.027,-45.86 -29.748,-46.144 -31.372,-46.29C-29.363,-46.216 -25.346,-46.15 -21.59,-46.037C-21.745,-46.114 -21.895,-46.193 -22.04,-46.276C-22.972,-46.823 -23.693,-47.521 -24.157,-48.315C-28.964,-48.084 -31.235,-47.237 -32.824,-46.406M-13.941,-44.424C-14.1,-44.524 -14.259,-44.646 -14.406,-44.806C-14.568,-44.688 -14.745,-44.597 -14.929,-44.528C-15.551,-39.577 -9.612,-37.128 -4.86,-36.933L-4.871,-36.978C-4.973,-37.456 -5.144,-37.975 -5.326,-38.523C-5.387,-38.705 -5.449,-38.891 -5.509,-39.083C-9.829,-39.139 -14.167,-40.566 -13.941,-44.424M-10.014,-43.283C-10.422,-43.894 -10.521,-44.874 -10.422,-45.673C-10.422,-45.673 -10.834,-45.349 -11.428,-45.279C-11.395,-45.178 -11.363,-45.076 -11.337,-44.984C-11.293,-44.844 -10.998,-44.022 -10.998,-44.022C-10.998,-44.022 -12.214,-44.044 -12.317,-44.044C-12.589,-44.044 -13.052,-44.044 -13.536,-44.225C-13.551,-43.325 -13.29,-42.54 -12.752,-41.884C-11.558,-40.42 -8.976,-39.559 -5.636,-39.495C-5.872,-40.293 -6.049,-41.126 -5.981,-41.917C-7.492,-41.919 -9.177,-42.023 -10.014,-43.283M-12.692,-52.292C-13.079,-53.164 -13.601,-54.007 -14.599,-55.413C-12.772,-53.298 -12.129,-52.426 -11.64,-51.237C-11.509,-50.985 -11.418,-50.7 -11.374,-50.393C-10.439,-50.259 -9.817,-49.662 -9.483,-48.999C-9.54,-51.666 -11.242,-54.866 -15.438,-56.637C-15.603,-55.146 -15.034,-53.49 -14.583,-52.537C-14.374,-52.588 -14.16,-52.617 -13.951,-52.617L-13.943,-52.617C-13.513,-52.615 -13.078,-52.501 -12.692,-52.292M-13.344,-46.776C-12.692,-47.996 -13.54,-48.937 -13.899,-49.622C-14.392,-49.025 -15.417,-48.282 -15.034,-46.956C-16.414,-46.908 -16.808,-45.705 -17.222,-45.05C-16.81,-44.984 -16.294,-44.801 -15.749,-44.801C-15.277,-44.801 -14.788,-44.939 -14.341,-45.4C-13.811,-44.549 -13.013,-44.457 -12.317,-44.457C-12.123,-44.457 -11.937,-44.462 -11.765,-44.462C-11.707,-44.462 -11.653,-44.46 -11.599,-44.459C-11.869,-45.186 -12,-46.446 -13.344,-46.776M-21.202,-42.082C-20.401,-42.082 -19.579,-42.212 -18.834,-42.552L-18.834,-42.554C-19.286,-42.819 -19.636,-43.226 -19.841,-43.719C-21.415,-43.529 -23.902,-43.226 -23.902,-43.226C-23.902,-43.226 -21.632,-43.744 -19.968,-44.099C-20.007,-44.272 -20.035,-44.449 -20.044,-44.633C-20.054,-44.905 -20.024,-45.171 -19.957,-45.419C-20.134,-45.443 -20.306,-45.452 -20.48,-45.452C-22.465,-45.452 -24.238,-44.063 -24.982,-43.118C-24.486,-42.673 -22.896,-42.082 -21.202,-42.082M-27.478,-41.332C-26.941,-41.602 -26.01,-41.985 -24.729,-42.462C-24.948,-42.574 -25.129,-42.693 -25.258,-42.809L-25.324,-42.869C-26.097,-42.841 -26.859,-42.825 -27.584,-42.825C-29.871,-42.825 -31.775,-42.971 -32.409,-43.279C-32.182,-42.212 -31.161,-41.274 -28.293,-40.907C-28.033,-41.049 -27.762,-41.19 -27.478,-41.332M-21.122,-37.527C-19.298,-37.527 -17.687,-38.23 -16.638,-38.901C-17.404,-38.958 -18.066,-39.295 -18.511,-39.842C-19.785,-39.121 -21.571,-38.069 -21.571,-38.069C-21.571,-38.069 -19.914,-39.312 -18.739,-40.173C-18.754,-40.202 -18.772,-40.228 -18.785,-40.257C-19.069,-40.792 -19.145,-41.405 -19.021,-41.986C-20.77,-40.829 -21.901,-39.177 -22.277,-37.619C-21.883,-37.556 -21.5,-37.527 -21.122,-37.527M-18.773,-46.993C-20.488,-47.619 -22.822,-48.624 -22.822,-48.624C-22.822,-48.624 -20.526,-47.948 -18.926,-47.492C-19.067,-48.111 -18.983,-48.737 -18.672,-49.293C-19.797,-49.563 -20.653,-49.715 -21.408,-49.715C-22.328,-49.715 -23.1,-49.49 -24.029,-48.977C-23.338,-47.346 -21.6,-46.276 -19.819,-45.813C-19.604,-46.291 -19.244,-46.699 -18.773,-46.993M-13.543,-36.191C-13.704,-36.158 -13.867,-36.142 -14.032,-36.142C-14.472,-36.142 -14.905,-36.261 -15.29,-36.475C-16.192,-34.988 -17.565,-32.771 -17.565,-32.771L-15.667,-36.737C-15.82,-36.86 -15.956,-36.998 -16.077,-37.155C-16.34,-37.487 -16.512,-37.875 -16.59,-38.281C-17.912,-36.44 -18.604,-34.359 -17.986,-31.997C-16.223,-32.501 -14.618,-34.064 -13.543,-36.191M-12.661,-29.53C-13.83,-31.144 -13.757,-33.456 -13.105,-36.117C-12.825,-35.471 -12.328,-34.979 -11.707,-34.73C-12.019,-32.93 -12.463,-30.395 -12.463,-30.395C-12.463,-30.395 -11.732,-32.868 -11.263,-34.597C-11.095,-34.564 -10.923,-34.545 -10.746,-34.545C-10.337,-34.545 -9.94,-34.64 -9.575,-34.824C-10.172,-32.407 -11.037,-30.577 -12.661,-29.53M-10.102,-17.593C-10.22,-17.024 -10.332,-16.144 -10.036,-15.562C-9.305,-15.627 -8.614,-15.824 -8.032,-16.444C-8.14,-16.84 -8.212,-17.275 -8.249,-17.748C-8.839,-17.085 -9.563,-16.278 -9.752,-16.09C-9.62,-16.325 -9.066,-17.227 -8.606,-17.971C-9.107,-17.801 -9.607,-17.675 -10.102,-17.593M-13.963,-18.43C-13.43,-18.75 -13.111,-19.088 -12.53,-19.63C-12.073,-19.497 -11.515,-19.421 -10.923,-19.421C-9.334,-19.421 -7.492,-19.965 -6.634,-21.397L-6.609,-21.397C-5.142,-21.397 -3.919,-22.2 -3.145,-23.4C-3.994,-22.737 -5.004,-21.913 -6.571,-21.913C-6.659,-21.913 -6.747,-21.913 -6.837,-21.92C-7.592,-20.377 -9.463,-19.858 -11.015,-19.858C-11.838,-19.858 -12.57,-20.006 -12.997,-20.219C-12.667,-20.385 -11.801,-20.916 -11.249,-21.503C-10.98,-21.46 -10.712,-21.445 -10.446,-21.445C-8.875,-21.445 -7.421,-22.146 -6.616,-23.266C-5.051,-23.323 -3.807,-24.318 -3.145,-25.335C-3.92,-24.722 -5.065,-23.786 -6.666,-23.786L-6.69,-23.786C-7.822,-22.278 -9.347,-21.859 -10.553,-21.859C-11.024,-21.859 -11.445,-21.923 -11.778,-22.012C-11.354,-22.347 -10.619,-22.968 -10.195,-23.708C-9.989,-23.682 -9.785,-23.669 -9.582,-23.669C-8.072,-23.669 -6.704,-24.379 -6.107,-25.487C-4.949,-25.619 -3.931,-26.013 -3.145,-27.366C-4.072,-26.451 -4.859,-25.958 -6.312,-25.917C-6.912,-24.75 -8.298,-24.078 -9.609,-24.078C-9.881,-24.078 -10.148,-24.109 -10.403,-24.168C-9.66,-24.661 -7.639,-26.812 -6.874,-29.029C-6.487,-30.15 -5.992,-31.44 -3.752,-31.44C-3.562,-31.44 -3.359,-31.431 -3.145,-31.41C-2.706,-30.031 -2.158,-27 -2.158,-24.613C-2.158,-24.012 -2.176,-23.428 -2.21,-22.864C-4.38,-20.29 -4.783,-17.735 -4.973,-15.862C-5.997,-16.32 -6.633,-17.729 -6.272,-20.079C-7.153,-17.899 -6.398,-16.401 -5.585,-15.73C-5.688,-15.269 -5.551,-14.25 -5.551,-14.25C-7.261,-14.681 -7.907,-16.475 -7.862,-18.699C-9.078,-18.165 -10.314,-17.885 -11.457,-17.885C-12.368,-17.885 -13.219,-18.064 -13.963,-18.43" style="fill:white;fill-rule:nonzero;"/>
            </g>
        </g>
        <g transform="matrix(4.166667,0,0,4.166667,0,0)">
            <g transform="matrix(1,0,0,1,48.3597,78.5253)">
                <path d="M0,-53.92C0.321,-53.959 0.663,-53.979 1.048,-53.979C1.826,-53.979 2.637,-53.898 3.421,-53.825C4.163,-53.754 4.862,-53.685 5.494,-53.685C5.714,-53.685 5.914,-53.696 6.101,-53.713C6.819,-55.592 8.345,-57.358 9.149,-58.825C8.626,-58.658 7.418,-58.822 7.062,-58.336C6.903,-58.124 7.068,-57.641 6.768,-57.641L6.765,-57.641C6.784,-57.914 6.516,-58.161 6.181,-58.161C5.982,-58.161 5.755,-58.07 5.557,-57.839C5.122,-57.33 6.116,-56.349 5.584,-55.363C5.608,-55.362 5.631,-55.362 5.651,-55.362C6.264,-55.362 6.344,-56.143 6.344,-56.555C6.756,-55.571 6.108,-54.914 5.085,-54.914C4.919,-54.914 4.745,-54.93 4.563,-54.968C3.504,-55.172 3.027,-55.624 3.027,-56.596C3.071,-56.891 3.053,-57.103 3.39,-57.314C3.286,-57.078 3.269,-56.792 3.269,-56.52C3.269,-56.08 3.504,-55.719 3.884,-55.584C3.808,-56.878 5.135,-57.209 5.036,-58.156C4.996,-58.519 4.565,-58.797 4.043,-58.797C3.86,-58.797 3.668,-58.762 3.476,-58.683C3.969,-59.563 2.923,-60.412 2.66,-60.841C2.398,-60.412 1.351,-59.563 1.846,-58.683C1.653,-58.762 1.463,-58.797 1.277,-58.797C0.757,-58.797 0.325,-58.519 0.286,-58.156C0.187,-57.209 1.514,-56.878 1.437,-55.584C1.817,-55.719 2.052,-56.08 2.052,-56.52C2.052,-56.792 2.033,-57.078 1.933,-57.314C2.266,-57.103 2.251,-56.891 2.294,-56.596C2.294,-55.635 1.814,-55.172 0.759,-54.968C0.578,-54.93 0.403,-54.914 0.239,-54.914C-0.786,-54.914 -1.434,-55.571 -1.022,-56.555C-1.022,-56.143 -0.945,-55.362 -0.33,-55.362C-0.309,-55.362 -0.286,-55.362 -0.264,-55.363C-0.796,-56.349 0.203,-57.33 -0.238,-57.839C-0.436,-58.07 -0.661,-58.161 -0.861,-58.161C-1.194,-58.161 -1.463,-57.914 -1.443,-57.641L-1.446,-57.641C-1.742,-57.641 -1.581,-58.124 -1.74,-58.336C-2.098,-58.822 -3.305,-58.658 -3.83,-58.825C-3.022,-57.355 -1.498,-55.591 -0.779,-53.708C-0.577,-53.807 -0.325,-53.88 0,-53.92M16.151,2.267C15.861,2.366 15.505,2.408 15.179,2.408C14.982,2.408 14.798,2.394 14.65,2.366C14.64,3.166 15.248,3.601 15.995,3.601C16.139,3.601 16.293,3.586 16.447,3.555C16.211,3.128 16.17,2.744 16.151,2.267M21.961,5.569C21.905,6.05 21.814,6.431 21.548,6.835C21.746,6.896 21.944,6.921 22.135,6.921C22.819,6.921 23.38,6.537 23.429,5.79C23.309,5.82 23.177,5.833 23.043,5.833C22.665,5.833 22.255,5.727 21.961,5.569M27.541,3.083C27.294,3.211 26.97,3.268 26.657,3.268C26.444,3.268 26.237,3.243 26.062,3.197C26.113,3.673 26.112,4.068 25.94,4.519C25.991,4.524 26.043,4.527 26.094,4.527C26.981,4.527 27.682,3.977 27.541,3.083M28.859,-2.368C28.693,-1.932 28.233,-1.499 27.832,-1.296C28.19,-0.978 28.449,-0.681 28.624,-0.228C29.381,-0.82 29.602,-1.763 28.859,-2.368M17.565,-2.602C16.794,-3.51 14.794,-5.6 12.957,-7.494C12.357,-7.568 11.67,-7.751 11.059,-8.315C11.017,-8.207 10.977,-8.094 10.929,-7.992C13.07,-6.165 16.494,-3.294 17.205,-2.511C17.53,-2.147 17.599,-1.771 17.578,-1.464C17.68,-1.573 17.746,-1.693 17.775,-1.799C17.823,-1.975 17.727,-2.414 17.565,-2.602M28.662,-2.608C28.381,-2.186 28.04,-1.679 27.436,-1.557C27.223,-1.514 27.022,-1.494 26.838,-1.494C26.101,-1.494 25.619,-1.807 25.379,-2.109C24.421,-1.624 24.077,-1.248 22.974,-1.179C22.568,-1.321 22.358,-1.413 21.718,-1.54C22.197,-1.214 23.047,-0.721 23.743,-0.431C24.317,-0.19 24.696,-0.185 25.259,0.278C25.585,-0.111 25.997,-0.269 26.384,-0.269C26.665,-0.269 26.933,-0.185 27.152,-0.047C27.684,0.293 27.969,0.965 27.766,1.615C27.64,2.022 27.089,2.256 26.495,2.256C26.397,2.256 26.298,2.251 26.199,2.235C26.384,2.355 26.59,2.406 26.801,2.406C27.15,2.406 27.505,2.267 27.747,2.065C27.979,2.073 28.074,2.492 27.575,2.719C27.301,2.841 26.951,2.933 26.584,2.933C26.377,2.933 26.164,2.901 25.959,2.833C25.325,2.622 24.862,1.969 24.862,1.374C23.887,1.31 23.265,1.086 22.329,0.253C22.074,0.023 21.728,-0.256 21.427,-0.422C21.117,-0.782 20.556,-1.133 20.232,-1.278C21.605,0.115 21.705,0.792 22.508,2.116C22.635,2.098 22.754,2.086 22.866,2.086C24.299,2.086 24.597,3.718 24.034,4.359C23.73,4.707 23.342,4.794 23.014,4.794C22.808,4.794 22.623,4.757 22.497,4.733C22.663,4.972 22.935,5.035 23.208,5.035C23.441,5.035 23.673,4.989 23.849,4.961C23.993,4.987 24.046,5.408 23.57,5.479C23.492,5.492 23.364,5.506 23.205,5.506C22.82,5.506 22.255,5.421 21.779,5.007C21.071,4.397 21.21,3.486 21.449,2.909C19.999,1.575 19.926,0.22 19.237,-0.32C19.388,-0.027 19.439,0.217 19.469,0.443C18.892,0.59 18.336,0.623 17.861,0.623C17.457,0.623 17.157,0.59 17.055,0.57C16.985,1.186 16.687,1.6 16.223,1.834C15.981,1.956 15.57,2.058 15.097,2.058C14.869,2.058 14.631,2.032 14.39,1.976C13.934,1.872 14.034,1.414 14.218,1.384C14.309,1.455 14.644,1.59 15.023,1.59C15.166,1.59 15.32,1.569 15.466,1.519C14.918,1.519 14.419,1.277 14.1,0.853C13.738,0.377 13.955,-1.133 15.398,-1.225C15.423,-1.227 15.449,-1.23 15.472,-1.23C16.065,-1.23 16.488,-0.787 17.028,-0.787C17.132,-0.787 17.239,-0.802 17.354,-0.841C17.79,-0.993 18.074,-1.333 18.171,-1.693C18.256,-2.008 18.123,-2.582 17.876,-2.869C17.132,-3.752 15.258,-5.714 13.481,-7.545C13.896,-8.249 13.825,-9.2 13.698,-9.854C13.923,-9.825 14.146,-9.81 14.367,-9.8C14.944,-9.215 15.472,-8.676 15.854,-8.351C15.629,-8.226 15.371,-8.175 15.096,-8.175C14.8,-8.175 14.482,-8.236 14.175,-8.321C14.508,-8.01 14.938,-7.903 15.34,-7.903C15.498,-7.903 15.652,-7.919 15.796,-7.947C16.038,-7.636 16.833,-6.963 17.15,-6.706C16.91,-6.559 16.62,-6.51 16.334,-6.51C15.986,-6.51 15.638,-6.584 15.372,-6.655C15.683,-6.34 16.08,-6.248 16.477,-6.248C16.704,-6.248 16.928,-6.279 17.139,-6.314C17.548,-5.791 18.173,-5.311 18.568,-5.015C18.341,-4.893 18.059,-4.845 17.785,-4.845C17.371,-4.845 16.962,-4.952 16.73,-5.043C17.012,-4.697 17.416,-4.551 17.908,-4.551C18.111,-4.551 18.331,-4.578 18.561,-4.626C18.998,-4.21 19.616,-3.7 20.036,-3.467C19.806,-3.304 19.482,-3.237 19.134,-3.237C18.752,-3.237 18.344,-3.318 18.015,-3.431C18.428,-3.083 18.875,-2.923 19.316,-2.923C19.515,-2.923 19.712,-2.956 19.91,-3.014C19.958,-2.956 20.106,-2.816 20.26,-2.72C20.397,-2.633 20.589,-2.6 20.81,-2.6C21.578,-2.6 22.667,-3.014 22.793,-3.058C23.337,-3.231 24.108,-3.353 24.807,-3.353C24.899,-3.353 24.991,-3.35 25.081,-3.345C25.081,-3.643 25.516,-4.565 26.506,-4.565C27.404,-4.565 27.95,-3.852 27.95,-3.099C27.95,-2.676 27.722,-2.422 27.165,-2.239C27.832,-2.244 28.145,-2.575 28.326,-3.012C28.369,-3.053 28.417,-3.07 28.462,-3.07C28.64,-3.07 28.799,-2.816 28.662,-2.608M-1.38,-52.373L-1.766,-52.373C-4.453,-52.373 -3.98,-49.699 -3.37,-49.092C-3.108,-49.462 -2.702,-49.615 -2.287,-49.615C-1.868,-49.615 -1.437,-49.46 -1.118,-49.204C-0.907,-49.247 -0.697,-49.265 -0.496,-49.265C0.896,-49.265 1.927,-48.33 1.786,-47.227C1.522,-47.266 0.948,-47.378 0.42,-47.378C0.217,-47.378 0.021,-47.361 -0.146,-47.317C-1.316,-47.026 -1.015,-46.221 -1.015,-46.221C-1.015,-46.221 -0.321,-46.533 0.336,-46.533C0.409,-46.533 0.479,-46.53 0.55,-46.52C1.029,-46.463 1.582,-46.312 2.042,-46.312C2.594,-46.312 3.016,-46.527 3.016,-47.378C3.016,-49.036 0.874,-49.046 -0.208,-50.135C-0.621,-50.549 -0.765,-51.264 -0.814,-51.774C-1.069,-51.907 -1.283,-52.119 -1.38,-52.373M-10.83,2.267C-10.849,2.744 -10.891,3.128 -11.123,3.555C-10.971,3.586 -10.819,3.601 -10.672,3.601C-9.926,3.601 -9.318,3.166 -9.329,2.366C-9.476,2.394 -9.661,2.408 -9.857,2.408C-10.181,2.408 -10.539,2.366 -10.83,2.267M-16.64,5.569C-16.932,5.727 -17.343,5.833 -17.722,5.833C-17.857,5.833 -17.987,5.82 -18.107,5.79C-18.06,6.537 -17.496,6.921 -16.813,6.921C-16.624,6.921 -16.427,6.896 -16.227,6.835C-16.493,6.431 -16.585,6.05 -16.64,5.569M-22.22,3.083C-22.363,3.977 -21.661,4.527 -20.773,4.527C-20.722,4.527 -20.669,4.524 -20.618,4.519C-20.79,4.068 -20.792,3.673 -20.742,3.197C-20.916,3.243 -21.124,3.268 -21.335,3.268C-21.65,3.268 -21.972,3.211 -22.22,3.083M-23.538,-2.368C-24.281,-1.763 -24.06,-0.82 -23.304,-0.228C-23.126,-0.681 -22.866,-0.978 -22.512,-1.296C-22.912,-1.499 -23.373,-1.932 -23.538,-2.368M-12.452,-1.799C-12.424,-1.693 -12.359,-1.573 -12.255,-1.464C-12.279,-1.771 -12.211,-2.147 -11.885,-2.511C-11.172,-3.294 -7.747,-6.165 -5.609,-7.992C-5.655,-8.094 -5.696,-8.207 -5.736,-8.315C-6.348,-7.751 -7.037,-7.568 -7.635,-7.494C-9.474,-5.6 -11.474,-3.51 -12.242,-2.602C-12.405,-2.414 -12.502,-1.975 -12.452,-1.799M-23.142,-3.07C-23.095,-3.07 -23.046,-3.053 -23.006,-3.012C-22.824,-2.575 -22.512,-2.244 -21.844,-2.239C-22.4,-2.422 -22.629,-2.676 -22.629,-3.099C-22.629,-3.852 -22.084,-4.565 -21.184,-4.565C-20.195,-4.565 -19.759,-3.643 -19.759,-3.345C-19.671,-3.35 -19.578,-3.353 -19.487,-3.353C-18.787,-3.353 -18.016,-3.231 -17.472,-3.058C-17.343,-3.014 -16.256,-2.6 -15.489,-2.6C-15.27,-2.6 -15.076,-2.633 -14.94,-2.72C-14.784,-2.816 -14.636,-2.956 -14.585,-3.014C-14.391,-2.956 -14.192,-2.923 -13.997,-2.923C-13.554,-2.923 -13.106,-3.083 -12.693,-3.431C-13.024,-3.318 -13.433,-3.237 -13.814,-3.237C-14.162,-3.237 -14.488,-3.304 -14.714,-3.467C-14.296,-3.7 -13.676,-4.21 -13.239,-4.626C-13.009,-4.578 -12.792,-4.551 -12.589,-4.551C-12.094,-4.551 -11.689,-4.697 -11.407,-5.043C-11.641,-4.952 -12.049,-4.845 -12.463,-4.845C-12.738,-4.845 -13.017,-4.893 -13.246,-5.015C-12.852,-5.311 -12.226,-5.791 -11.819,-6.314C-11.607,-6.279 -11.381,-6.248 -11.155,-6.248C-10.758,-6.248 -10.361,-6.34 -10.05,-6.655C-10.316,-6.584 -10.663,-6.51 -11.013,-6.51C-11.299,-6.51 -11.587,-6.559 -11.829,-6.706C-11.511,-6.963 -10.72,-7.636 -10.473,-7.947C-10.331,-7.919 -10.179,-7.903 -10.021,-7.903C-9.616,-7.903 -9.185,-8.01 -8.854,-8.321C-9.163,-8.236 -9.477,-8.175 -9.775,-8.175C-10.05,-8.175 -10.308,-8.226 -10.533,-8.351C-10.151,-8.676 -9.623,-9.215 -9.045,-9.8C-8.825,-9.81 -8.599,-9.825 -8.376,-9.854C-8.502,-9.2 -8.578,-8.249 -8.159,-7.545C-9.935,-5.714 -11.807,-3.752 -12.558,-2.869C-12.801,-2.582 -12.935,-2.008 -12.85,-1.693C-12.753,-1.333 -12.468,-0.993 -12.033,-0.841C-11.918,-0.802 -11.807,-0.787 -11.705,-0.787C-11.166,-0.787 -10.745,-1.23 -10.151,-1.23C-10.129,-1.23 -10.103,-1.227 -10.077,-1.225C-8.634,-1.133 -8.414,0.377 -8.778,0.853C-9.1,1.277 -9.597,1.519 -10.147,1.519C-9.999,1.569 -9.846,1.59 -9.702,1.59C-9.325,1.59 -8.988,1.455 -8.896,1.384C-8.714,1.414 -8.613,1.872 -9.068,1.976C-9.308,2.032 -9.551,2.058 -9.776,2.058C-10.246,2.058 -10.662,1.956 -10.901,1.834C-11.368,1.6 -11.664,1.186 -11.733,0.57C-11.833,0.59 -12.14,0.623 -12.539,0.623C-13.015,0.623 -13.57,0.59 -14.148,0.443C-14.119,0.217 -14.066,-0.027 -13.916,-0.32C-14.604,0.22 -14.675,1.575 -16.128,2.909C-15.888,3.486 -15.751,4.397 -16.458,5.007C-16.934,5.421 -17.497,5.506 -17.884,5.506C-18.042,5.506 -18.17,5.492 -18.251,5.479C-18.727,5.408 -18.672,4.987 -18.527,4.961C-18.352,4.989 -18.119,5.035 -17.888,5.035C-17.612,5.035 -17.342,4.972 -17.177,4.733C-17.301,4.757 -17.485,4.794 -17.693,4.794C-18.022,4.794 -18.409,4.707 -18.714,4.359C-19.275,3.718 -18.977,2.086 -17.546,2.086C-17.433,2.086 -17.313,2.098 -17.186,2.116C-16.382,0.792 -16.282,0.115 -14.91,-1.278C-15.233,-1.133 -15.797,-0.782 -16.106,-0.422C-16.408,-0.256 -16.753,0.023 -17.008,0.253C-17.946,1.086 -18.568,1.31 -19.544,1.374C-19.544,1.969 -20.004,2.622 -20.637,2.833C-20.844,2.901 -21.056,2.933 -21.266,2.933C-21.628,2.933 -21.981,2.841 -22.256,2.719C-22.751,2.492 -22.658,2.073 -22.427,2.065C-22.184,2.267 -21.83,2.406 -21.48,2.406C-21.27,2.406 -21.06,2.355 -20.879,2.235C-20.978,2.251 -21.075,2.256 -21.175,2.256C-21.766,2.256 -22.315,2.022 -22.446,1.615C-22.652,0.965 -22.363,0.293 -21.832,-0.047C-21.612,-0.185 -21.345,-0.269 -21.06,-0.269C-20.676,-0.269 -20.265,-0.111 -19.938,0.278C-19.377,-0.185 -18.995,-0.19 -18.421,-0.431C-17.724,-0.721 -16.875,-1.214 -16.396,-1.54C-17.037,-1.413 -17.247,-1.321 -17.654,-1.179C-18.755,-1.248 -19.102,-1.624 -20.058,-2.109C-20.296,-1.807 -20.783,-1.494 -21.518,-1.494C-21.701,-1.494 -21.901,-1.514 -22.116,-1.557C-22.721,-1.679 -23.062,-2.186 -23.339,-2.608C-23.479,-2.816 -23.317,-3.07 -23.142,-3.07" style="fill:rgb(255,203,3);fill-rule:nonzero;"/>
            </g>
        </g>
        <g transform="matrix(4.166667,0,0,4.166667,0,0)">
            <g transform="matrix(-1,0,0,1,268.782,69.719)">
                <rect x="93.544" y="16.979" width="81.694" height="4.11" style="fill:rgb(237,28,36);"/>
            </g>
        </g>
        <g transform="matrix(4.166667,0,0,4.166667,0,0)">
            <g transform="matrix(-1,0,0,1,268.782,61.497)">
                <rect x="93.544" y="21.09" width="81.694" height="4.11" style="fill:white;"/>
            </g>
        </g>
        <g transform="matrix(4.166667,0,0,4.166667,0,0)">
            <g transform="matrix(1,0,0,1,0,57.103)">
                <rect x="93.543" y="25.2" width="81.694" height="0.284" style="fill:rgb(35,31,32);"/>
            </g>
        </g>
    </g>
</svg>
